<svg width="76" height="76" viewBox="0 0 76 76" fill="none" xmlns="http://www.w3.org/2000/svg">
<rect width="76" height="76" rx="5" fill="#E44D26"/>
<path d="M21.1875 14L24.1568 47.3L37.4814 51L50.8407 47.2954L53.8146 14H21.1898H21.1875ZM47.3511 24.8919H31.7233L32.0956 29.0752H46.9811L45.8596 41.6136L37.4814 43.9353L29.1148 41.6136L28.5436 35.1987H32.6436L32.935 38.4593L37.4837 39.6849L37.4929 39.6826L42.0439 38.4547L42.5157 33.1591H28.3609L27.2601 20.808H47.7188L47.3534 24.8919H47.3511Z" fill="white"/>
<path d="M27.864 60.19C28.1207 60.19 28.326 60.267 28.48 60.421C28.634 60.575 28.711 60.7803 28.711 61.037V67.208C28.711 67.4647 28.634 67.6737 28.48 67.835C28.326 67.989 28.1207 68.066 27.864 68.066C27.6073 68.066 27.402 67.989 27.248 67.835C27.1013 67.681 27.028 67.472 27.028 67.208V64.744H23.453V67.208C23.453 67.4647 23.376 67.6737 23.222 67.835C23.068 67.989 22.8663 68.066 22.617 68.066C22.3603 68.066 22.155 67.989 22.001 67.835C21.847 67.681 21.77 67.472 21.77 67.208V61.037C21.77 60.7803 21.847 60.575 22.001 60.421C22.155 60.267 22.3603 60.19 22.617 60.19C22.8737 60.19 23.0753 60.267 23.222 60.421C23.376 60.575 23.453 60.7803 23.453 61.037V63.38H27.028V61.037C27.028 60.7803 27.1013 60.575 27.248 60.421C27.402 60.267 27.6073 60.19 27.864 60.19ZM32.9073 68.055C32.6507 68.055 32.4417 67.978 32.2803 67.824C32.1263 67.67 32.0493 67.4647 32.0493 67.208V61.642H30.2673C29.7247 61.642 29.4533 61.4073 29.4533 60.938C29.4533 60.476 29.7247 60.245 30.2673 60.245H35.5473C36.09 60.245 36.3613 60.476 36.3613 60.938C36.3613 61.4073 36.09 61.642 35.5473 61.642H33.7653V67.208C33.7653 67.4647 33.6883 67.67 33.5343 67.824C33.3803 67.978 33.1713 68.055 32.9073 68.055ZM43.9851 60.19C44.2271 60.19 44.4214 60.2707 44.5681 60.432C44.7221 60.586 44.7991 60.7877 44.7991 61.037V67.285C44.7991 67.527 44.7294 67.7177 44.5901 67.857C44.4508 67.9963 44.2674 68.066 44.0401 68.066C43.8201 68.066 43.6404 67.9963 43.5011 67.857C43.3618 67.7177 43.2921 67.527 43.2921 67.285V63.402L41.7301 66.339C41.6274 66.5297 41.5138 66.669 41.3891 66.757C41.2718 66.845 41.1288 66.889 40.9601 66.889C40.7988 66.889 40.6558 66.845 40.5311 66.757C40.4064 66.669 40.2928 66.5297 40.1901 66.339L38.6281 63.457V67.285C38.6281 67.5197 38.5584 67.7103 38.4191 67.857C38.2798 67.9963 38.0964 68.066 37.8691 68.066C37.6491 68.066 37.4694 67.9963 37.3301 67.857C37.1908 67.7177 37.1211 67.527 37.1211 67.285V61.037C37.1211 60.7877 37.1944 60.586 37.3411 60.432C37.4951 60.2707 37.6931 60.19 37.9351 60.19C38.2871 60.19 38.5548 60.377 38.7381 60.751L40.9711 64.986L43.1931 60.751C43.3911 60.377 43.6551 60.19 43.9851 60.19ZM47.1619 68C46.9052 68 46.7072 67.9303 46.5679 67.791C46.4285 67.6517 46.3589 67.4537 46.3589 67.197V61.037C46.3589 60.7803 46.4359 60.575 46.5899 60.421C46.7439 60.267 46.9529 60.19 47.2169 60.19C47.4809 60.19 47.6899 60.267 47.8439 60.421C47.9979 60.575 48.0749 60.7803 48.0749 61.037V66.603H50.8909C51.4262 66.603 51.6939 66.8377 51.6939 67.307C51.6939 67.769 51.4262 68 50.8909 68H47.1619Z" fill="white"/>
</svg>
