<svg width="76" height="76" viewBox="0 0 76 76" fill="none" xmlns="http://www.w3.org/2000/svg">
<rect width="76" height="76" rx="5" fill="#FE6D1C"/>
<path d="M27.847 70.066C27.5097 70.0807 27.253 70.0293 27.077 69.912C26.9083 69.7947 26.824 69.615 26.824 69.373C26.824 69.153 26.879 68.9917 26.989 68.889C27.099 68.779 27.2713 68.7167 27.506 68.702L27.858 68.68C28.386 68.658 28.65 68.3463 28.65 67.745V63.037C28.65 62.7803 28.7307 62.575 28.892 62.421C29.0533 62.267 29.2623 62.19 29.519 62.19C29.7757 62.19 29.981 62.267 30.135 62.421C30.2963 62.575 30.377 62.7803 30.377 63.037V67.723C30.377 69.175 29.651 69.9487 28.199 70.044L27.847 70.066ZM39.1435 68.955C39.2022 69.087 39.2315 69.2043 39.2315 69.307C39.2315 69.5123 39.1472 69.6883 38.9785 69.835C38.8172 69.9743 38.6302 70.044 38.4175 70.044C38.2782 70.044 38.1462 70.0073 38.0215 69.934C37.8968 69.8533 37.8015 69.736 37.7355 69.582L37.1525 68.284H33.4235L32.8405 69.582C32.7745 69.736 32.6792 69.8533 32.5545 69.934C32.4372 70.0073 32.3052 70.044 32.1585 70.044C31.9458 70.044 31.7552 69.9743 31.5865 69.835C31.4178 69.6883 31.3335 69.5123 31.3335 69.307C31.3335 69.2043 31.3628 69.087 31.4215 68.955L34.3915 62.718C34.4722 62.542 34.5932 62.41 34.7545 62.322C34.9158 62.2267 35.0882 62.179 35.2715 62.179C35.4622 62.179 35.6382 62.2267 35.7995 62.322C35.9608 62.4173 36.0855 62.5493 36.1735 62.718L39.1435 68.955ZM36.5695 66.986L35.2935 64.126L34.0065 66.986H36.5695ZM45.0138 62.641C45.0798 62.487 45.1751 62.3733 45.2998 62.3C45.4245 62.2193 45.5638 62.179 45.7178 62.179C45.9378 62.179 46.1358 62.2523 46.3118 62.399C46.4878 62.5457 46.5758 62.7253 46.5758 62.938C46.5758 63.048 46.5501 63.158 46.4988 63.268L43.5288 69.538C43.4481 69.7067 43.3271 69.8387 43.1658 69.934C43.0045 70.022 42.8285 70.066 42.6378 70.066C42.4471 70.066 42.2711 70.022 42.1098 69.934C41.9485 69.8387 41.8275 69.7067 41.7468 69.538L38.7768 63.268C38.7255 63.1653 38.6998 63.059 38.6998 62.949C38.6998 62.729 38.7915 62.5457 38.9748 62.399C39.1581 62.2523 39.3635 62.179 39.5908 62.179C39.7448 62.179 39.8841 62.2193 40.0088 62.3C40.1408 62.3733 40.2398 62.487 40.3058 62.641L42.6598 67.789L45.0138 62.641ZM53.8603 68.955C53.9189 69.087 53.9483 69.2043 53.9483 69.307C53.9483 69.5123 53.8639 69.6883 53.6953 69.835C53.5339 69.9743 53.3469 70.044 53.1343 70.044C52.9949 70.044 52.8629 70.0073 52.7383 69.934C52.6136 69.8533 52.5183 69.736 52.4523 69.582L51.8693 68.284H48.1403L47.5573 69.582C47.4913 69.736 47.3959 69.8533 47.2713 69.934C47.1539 70.0073 47.0219 70.044 46.8753 70.044C46.6626 70.044 46.4719 69.9743 46.3033 69.835C46.1346 69.6883 46.0503 69.5123 46.0503 69.307C46.0503 69.2043 46.0796 69.087 46.1383 68.955L49.1083 62.718C49.1889 62.542 49.3099 62.41 49.4713 62.322C49.6326 62.2267 49.8049 62.179 49.9883 62.179C50.1789 62.179 50.3549 62.2267 50.5163 62.322C50.6776 62.4173 50.8023 62.5493 50.8903 62.718L53.8603 68.955ZM51.2863 66.986L50.0103 64.126L48.7233 66.986H51.2863Z" fill="white"/>
<path d="M32.6092 40.2408C32.6092 40.2408 30.7532 41.1946 33.9301 41.5174C37.7788 41.9054 39.7457 41.8498 43.9871 41.1403C43.9871 41.1403 45.1023 41.7582 46.6594 42.2935C37.1516 45.8947 25.1411 42.0848 32.6092 40.2408Z" fill="white"/>
<path d="M31.4475 35.5414C31.4475 35.5414 29.3659 36.9032 32.5451 37.1937C36.6564 37.5686 39.9032 37.5993 45.5214 36.6432C45.5214 36.6432 46.2985 37.3394 47.5204 37.7202C36.0247 40.6909 23.2207 37.9545 31.4475 35.5414Z" fill="white"/>
<path d="M41.2421 27.5698C43.5849 29.9534 40.6266 32.0985 40.6266 32.0985C40.6266 32.0985 46.5751 29.3846 43.8432 25.9861C41.2917 22.817 39.3349 21.2422 49.9278 15.813C49.9278 15.813 33.3006 19.4829 41.2421 27.5697" fill="white"/>
<path d="M53.8169 43.7168C53.8169 43.7168 55.1904 44.7169 52.3042 45.4906C46.8162 46.96 29.4622 47.4037 24.6413 45.5492C22.9084 44.8831 26.1582 43.9584 27.1804 43.7643C28.2465 43.56 28.8558 43.5981 28.8558 43.5981C26.9285 42.3983 16.3988 45.9541 23.5073 46.9723C42.8929 49.7506 58.8452 45.7213 53.8169 43.7168Z" fill="white"/>
<path d="M33.5015 30.6724C33.5015 30.6724 24.6744 32.5253 30.3757 33.1981C32.783 33.4829 37.5818 33.4185 42.0518 33.0875C45.705 32.8153 49.3732 32.2361 49.3732 32.2361C49.3732 32.2361 48.0851 32.7237 47.1531 33.286C38.1891 35.3696 20.8723 34.4003 25.8576 32.2691C30.0737 30.4681 33.5017 30.6724 33.5017 30.6724" fill="white"/>
<path d="M49.3369 38.4947C58.4494 34.31 54.2361 30.2886 51.2954 30.8305C50.5745 30.963 50.2532 31.0778 50.2532 31.0778C50.2532 31.0778 50.5208 30.7074 51.0319 30.5471C56.8495 28.7395 61.3238 35.8783 49.1538 38.7056C49.1538 38.7057 49.2949 38.5943 49.3369 38.4947Z" fill="white"/>
<path d="M43.8429 7.04608C43.8429 7.04608 48.8895 11.5076 39.0565 18.3679C31.1715 23.8711 37.2584 27.0089 39.0532 30.5939C34.4506 26.924 31.0728 23.6933 33.3389 20.6865C36.6649 16.2726 45.879 14.1326 43.8429 7.04596" fill="white"/>
<path d="M34.3969 49.8341C43.1436 50.329 56.5751 49.5596 56.8932 45.902C56.8932 45.902 56.2818 47.2887 49.6645 48.3898C42.199 49.6313 32.9914 49.4864 27.5303 48.6906C27.5304 48.6906 28.6482 49.5084 34.397 49.8341" fill="white"/>
</svg>
