<svg width="76" height="76" viewBox="0 0 76 76" fill="none" xmlns="http://www.w3.org/2000/svg">
<rect width="76" height="76" rx="5" fill="#00BCED"/>
<path d="M27.128 64.911C27.238 65.0723 27.293 65.23 27.293 65.384C27.293 65.5893 27.2087 65.758 27.04 65.89C26.8787 66.022 26.688 66.088 26.468 66.088C26.3287 66.088 26.193 66.055 26.061 65.989C25.929 65.923 25.819 65.8203 25.731 65.681L24.279 63.525C24.1543 63.3343 24.0223 63.1987 23.883 63.118C23.7437 63.03 23.5677 62.986 23.355 62.986H22.464V65.208C22.464 65.472 22.387 65.681 22.233 65.835C22.0863 65.989 21.8847 66.066 21.628 66.066C21.364 66.066 21.155 65.989 21.001 65.835C20.847 65.681 20.77 65.472 20.77 65.208V59.048C20.77 58.7913 20.8397 58.5933 20.979 58.454C21.1183 58.3147 21.3163 58.245 21.573 58.245H24.334C25.2433 58.245 25.929 58.4467 26.391 58.85C26.8603 59.246 27.095 59.8217 27.095 60.577C27.095 61.171 26.93 61.666 26.6 62.062C26.27 62.458 25.8043 62.7183 25.203 62.843C25.423 62.887 25.6173 62.975 25.786 63.107C25.962 63.2317 26.1307 63.415 26.292 63.657L27.128 64.911ZM24.081 61.688C24.5723 61.688 24.928 61.6037 25.148 61.435C25.368 61.259 25.478 60.9877 25.478 60.621C25.478 60.247 25.368 59.9757 25.148 59.807C24.928 59.6383 24.5723 59.554 24.081 59.554H22.442V61.688H24.081ZM29.2859 66C29.0292 66 28.8312 65.9303 28.6919 65.791C28.5526 65.6517 28.4829 65.4537 28.4829 65.197V59.048C28.4829 58.7913 28.5526 58.5933 28.6919 58.454C28.8312 58.3147 29.0292 58.245 29.2859 58.245H33.1799C33.7226 58.245 33.9939 58.465 33.9939 58.905C33.9939 59.3523 33.7226 59.576 33.1799 59.576H30.1549V61.391H32.9599C33.5026 61.391 33.7739 61.6147 33.7739 62.062C33.7739 62.502 33.5026 62.722 32.9599 62.722H30.1549V64.669H33.1799C33.7226 64.669 33.9939 64.8927 33.9939 65.34C33.9939 65.78 33.7226 66 33.1799 66H29.2859ZM42.123 64.955C42.1816 65.087 42.211 65.2043 42.211 65.307C42.211 65.5123 42.1266 65.6883 41.958 65.835C41.7966 65.9743 41.6096 66.044 41.397 66.044C41.2576 66.044 41.1256 66.0073 41.001 65.934C40.8763 65.8533 40.781 65.736 40.715 65.582L40.132 64.284H36.403L35.82 65.582C35.754 65.736 35.6586 65.8533 35.534 65.934C35.4166 66.0073 35.2846 66.044 35.138 66.044C34.9253 66.044 34.7346 65.9743 34.566 65.835C34.3973 65.6883 34.313 65.5123 34.313 65.307C34.313 65.2043 34.3423 65.087 34.401 64.955L37.371 58.718C37.4516 58.542 37.5726 58.41 37.734 58.322C37.8953 58.2267 38.0676 58.179 38.251 58.179C38.4416 58.179 38.6176 58.2267 38.779 58.322C38.9403 58.4173 39.065 58.5493 39.153 58.718L42.123 64.955ZM39.549 62.986L38.273 60.126L36.986 62.986H39.549ZM46.5059 66.099C45.7432 66.099 45.0759 65.9377 44.5039 65.615C43.9319 65.2923 43.4919 64.8303 43.1839 64.229C42.8759 63.6277 42.7219 62.9237 42.7219 62.117C42.7219 61.3103 42.8759 60.61 43.1839 60.016C43.4919 59.4147 43.9319 58.9527 44.5039 58.63C45.0759 58.3073 45.7432 58.146 46.5059 58.146C47.4665 58.146 48.2952 58.41 48.9919 58.938C49.1019 59.026 49.1789 59.114 49.2229 59.202C49.2669 59.29 49.2889 59.4 49.2889 59.532C49.2889 59.7227 49.2339 59.8877 49.1239 60.027C49.0212 60.159 48.8929 60.225 48.7389 60.225C48.6362 60.225 48.5445 60.214 48.4639 60.192C48.3905 60.1627 48.3062 60.115 48.2109 60.049C47.9175 59.8583 47.6462 59.7227 47.3969 59.642C47.1475 59.554 46.8799 59.51 46.5939 59.51C45.8899 59.51 45.3582 59.73 44.9989 60.17C44.6469 60.6027 44.4709 61.2517 44.4709 62.117C44.4709 63.8623 45.1785 64.735 46.5939 64.735C46.8652 64.735 47.1219 64.6947 47.3639 64.614C47.6059 64.526 47.8882 64.3867 48.2109 64.196C48.3209 64.13 48.4125 64.086 48.4859 64.064C48.5592 64.0347 48.6435 64.02 48.7389 64.02C48.8929 64.02 49.0212 64.0897 49.1239 64.229C49.2339 64.361 49.2889 64.5223 49.2889 64.713C49.2889 64.845 49.2632 64.9587 49.2119 65.054C49.1679 65.142 49.0945 65.2263 48.9919 65.307C48.2952 65.835 47.4665 66.099 46.5059 66.099ZM52.9405 66.055C52.6839 66.055 52.4749 65.978 52.3135 65.824C52.1595 65.67 52.0825 65.4647 52.0825 65.208V59.642H50.3005C49.7579 59.642 49.4865 59.4073 49.4865 58.938C49.4865 58.476 49.7579 58.245 50.3005 58.245H55.5805C56.1232 58.245 56.3945 58.476 56.3945 58.938C56.3945 59.4073 56.1232 59.642 55.5805 59.642H53.7985V65.208C53.7985 65.4647 53.7215 65.67 53.5675 65.824C53.4135 65.978 53.2045 66.055 52.9405 66.055Z" fill="white"/>
<path d="M37.5 29.2C35.6812 29.2 34.2001 30.6812 34.2001 32.5C34.2001 34.3188 35.6812 35.7999 37.5 35.7999C39.3188 35.7999 40.7999 34.3188 40.7999 32.5C40.7999 30.6812 39.3188 29.2 37.5 29.2ZM28.2616 39.0582L27.5331 38.8779C22.1126 37.5042 19 35.1802 19 32.4942C19 29.8082 22.1138 27.4842 27.5331 26.1105L28.2616 25.9302L28.4662 26.6528C29.0161 28.5456 29.7191 30.3905 30.5683 32.1693L30.7244 32.4942L30.5683 32.8249C29.7173 34.6029 29.0143 36.4479 28.4662 38.3414L28.2616 39.0582ZM27.1967 27.7964C23.0769 28.9526 20.5482 30.7286 20.5482 32.4942C20.5482 34.2598 23.0781 36.0289 27.1967 37.192C27.7015 35.5879 28.311 34.0186 29.0212 32.4942C28.31 30.9702 27.7005 29.4008 27.1967 27.7964ZM46.7384 39.0582L46.5338 38.3356C45.9849 36.4443 45.2818 34.6013 44.4317 32.8249L44.2756 32.4942L44.4317 32.1635C45.2827 30.3855 45.9857 28.5405 46.5338 26.647L46.7384 25.9302L47.4669 26.1105C52.8874 27.4842 56 29.8082 56 32.4942C56 35.1802 52.8862 37.5042 47.4669 38.8779L46.7384 39.0582ZM45.9788 32.4942C46.6913 34.0176 47.3009 35.5871 47.8033 37.192C51.9288 36.03 54.4518 34.2598 54.4518 32.4942C54.4518 30.7286 51.9219 28.9595 47.8033 27.7964C47.2973 29.4001 46.6878 30.9693 45.9788 32.4942ZM27.1839 27.7906L26.9793 27.0679C25.4553 21.696 25.919 17.8422 28.25 16.4986C30.5382 15.1794 34.2058 16.7391 38.0538 20.69L38.5776 21.2265L38.0538 21.763C36.6873 23.1848 35.4387 24.7153 34.3203 26.3395L34.1099 26.6343L33.748 26.6644C31.7806 26.8197 29.829 27.134 27.9124 27.6044L27.1839 27.7906ZM30.1104 17.5716C29.6953 17.5716 29.3276 17.656 29.0201 17.8364C27.4903 18.7221 27.2198 21.7931 28.2731 25.9359C29.9167 25.5683 31.5825 25.3087 33.26 25.1589C34.2258 23.7835 35.2818 22.4736 36.4212 21.2381C34.0185 18.8955 31.7419 17.5705 30.1104 17.5705V17.5716ZM44.8954 48.958C44.8896 48.958 44.8896 48.958 44.8954 48.958C42.6973 48.958 39.8726 47.3081 36.9462 44.2972L36.4224 43.7607L36.9462 43.2242C38.3127 41.8024 39.5613 40.2719 40.6797 38.6478L40.8843 38.3529L41.2463 38.3171C43.2162 38.167 45.1701 37.8526 47.0876 37.377L47.8161 37.1967L48.0207 37.9193C49.5447 43.2913 49.081 47.1393 46.75 48.4817C46.1864 48.8056 45.5453 48.9699 44.8954 48.9569V48.958ZM38.5776 43.7491C40.9803 46.0917 43.257 47.4168 44.8884 47.4168H44.8942C45.3035 47.4168 45.6712 47.3266 45.9788 47.152C47.5085 46.2663 47.786 43.1953 46.7257 39.0524C45.0825 39.4205 43.4165 39.6781 41.7388 39.8237C40.7731 41.201 39.717 42.5128 38.5776 43.7503V43.7491ZM47.8161 27.7906L47.0876 27.6044C45.1687 27.1356 43.2153 26.8213 41.2463 26.6644L40.8843 26.6343L40.6797 26.3395C39.5613 24.7153 38.3127 23.1848 36.9462 21.763L36.4224 21.2265L36.9462 20.69C40.7942 16.7391 44.4618 15.1794 46.75 16.4986C49.081 17.841 49.5447 21.696 48.0207 27.0679L47.8161 27.7906ZM41.74 25.1589C43.4175 25.3083 45.0834 25.5679 46.7269 25.9359C47.7872 21.7931 47.5097 18.7209 45.9799 17.8364C44.456 16.9577 41.5897 18.3059 38.5788 21.2393C39.7151 22.4774 40.771 23.7871 41.74 25.1601V25.1589ZM30.1104 48.958C29.4594 48.9696 28.8154 48.8077 28.25 48.4828C25.919 47.1404 25.4553 43.2913 26.9793 37.9205L27.1839 37.1978L27.9124 37.3782C29.6953 37.8303 31.6586 38.1425 33.748 38.3182L34.1099 38.3541L34.3145 38.6489C35.4329 40.2731 36.6816 41.8036 38.0481 43.2254L38.5718 43.7619L38.0481 44.2984C35.1274 47.3092 32.3027 48.9592 30.1104 48.9592V48.958ZM28.2743 39.0524C27.214 43.1953 27.4915 46.2674 29.0212 47.152C30.5452 48.0192 33.4057 46.6825 36.4224 43.7491C35.2829 42.5116 34.2269 41.1999 33.2612 39.8225C31.5835 39.6774 29.9174 39.4198 28.2743 39.0513V39.0524ZM37.5 40.0214C36.2293 40.0214 34.9285 39.967 33.6219 39.8584L33.26 39.8283L33.0496 39.5277C32.3116 38.4672 31.6184 37.3763 30.9718 36.2578C30.3239 35.1392 29.7233 33.9939 29.1715 32.8249L29.0154 32.4942L29.1715 32.1635C30.2769 29.826 31.5741 27.5841 33.0496 25.4607L33.26 25.1601L33.6219 25.13C36.2027 24.9127 38.7973 24.9127 41.3781 25.13L41.74 25.1601L41.9504 25.4607C43.4278 27.5829 44.7251 29.825 45.8285 32.1635L45.9846 32.4942L45.8285 32.8249C44.7273 35.1646 43.43 37.4069 41.9504 39.5277L41.74 39.8283L41.3781 39.8584C40.0882 39.9663 38.7944 40.0207 37.5 40.0214ZM34.1157 38.3471C36.3923 38.5217 38.6077 38.5217 40.8901 38.3471C42.1631 36.4832 43.2943 34.5263 44.2745 32.493C43.2985 30.4564 42.165 28.4991 40.8843 26.6389C38.6315 26.4644 36.3685 26.4644 34.1157 26.6389C32.8341 28.4985 31.7006 30.4559 30.7255 32.493C31.7059 34.5273 32.8392 36.4843 34.1157 38.3471Z" fill="white"/>
</svg>
