<svg width="66" height="60" viewBox="0 0 66 60" fill="none" xmlns="http://www.w3.org/2000/svg">
<path d="M17.028 45.748C15.8547 45.748 14.828 45.4987 13.948 45C13.0973 44.5307 12.672 43.6947 12.672 42.492C12.672 41.7293 12.8627 40.8787 13.244 39.94C13.772 40.5267 14.256 40.9373 14.696 41.172C15.1653 41.4067 15.664 41.524 16.192 41.524C17.6587 41.524 18.744 40.7027 19.448 39.06C20.1813 37.4173 20.548 35.5987 20.548 33.604C20.548 29.8787 19.1547 28.016 16.368 28.016C15.576 28.016 14.9013 28.06 14.344 28.148L10.736 45H4.4L10.384 17.016L16.896 16.136L14.828 25.904H15.092C16.2067 25.904 17.248 25.552 18.216 24.848C19.184 24.1147 19.9613 23.2053 20.548 22.12C21.1347 21.0053 21.428 19.8907 21.428 18.776C21.428 17.4267 20.944 16.2973 19.976 15.388C19.0373 14.4787 17.5853 14.024 15.62 14.024C13.8307 14.024 12.0853 14.4347 10.384 15.256C8.68267 16.048 7.28933 17.2507 6.204 18.864C5.148 20.4773 4.62 22.428 4.62 24.716C4.62 25.8013 4.72267 26.564 4.928 27.004C5.13333 27.4147 5.236 27.6493 5.236 27.708C3.68133 27.708 2.508 27.4 1.716 26.784C0.924 26.1387 0.528 25.0973 0.528 23.66C0.528 21.6653 1.276 19.7733 2.772 17.984C4.268 16.1947 6.248 14.7573 8.712 13.672C11.176 12.5573 13.772 12 16.5 12C18.5533 12 20.284 12.3227 21.692 12.968C23.1 13.6133 24.1413 14.464 24.816 15.52C25.52 16.576 25.872 17.7347 25.872 18.996C25.872 20.3453 25.4907 21.6507 24.728 22.912C23.9653 24.1733 22.88 25.2 21.472 25.992C23.232 26.3147 24.5373 27.136 25.388 28.456C26.2387 29.7467 26.664 31.2867 26.664 33.076C26.664 34.748 26.3413 36.5667 25.696 38.532C25.08 40.4973 24.0387 42.1987 22.572 43.636C21.1347 45.044 19.2867 45.748 17.028 45.748Z" fill="white"/>
<line y1="-2.5" x2="25.7715" y2="-2.5" transform="matrix(0.713376 0.700782 -0.713376 0.700782 38 41.9399)" stroke="white" stroke-width="5"/>
<line x1="42" y1="30.5" x2="66" y2="30.5" stroke="white" stroke-width="5"/>
<line y1="-2.5" x2="25.7715" y2="-2.5" transform="matrix(0.713376 -0.700782 0.713376 0.700782 42.2311 22.0601)" stroke="white" stroke-width="5"/>
</svg>
