<svg width="152" height="52" viewBox="0 0 152 52" fill="none" xmlns="http://www.w3.org/2000/svg">
<path fill-rule="evenodd" clip-rule="evenodd" d="M146.377 4.04934L127.992 19.5136L124.166 16.2951L142.551 0.830811L146.377 4.04934ZM128 28.7697H152V23.7697H128V28.7697ZM123.761 36.5357L142.146 52L145.972 48.7815L127.588 33.3172L123.761 36.5357ZM13.3139 36.3294C14.1539 36.8054 15.1339 37.0434 16.2539 37.0434C18.4099 37.0434 20.1739 36.3714 21.5459 35.0274C22.9459 33.6554 23.9399 32.0314 24.5279 30.1554C25.1439 28.2794 25.4519 26.5434 25.4519 24.9474C25.4519 23.2394 25.0459 21.7694 24.2339 20.5374C23.4219 19.2774 22.1759 18.4934 20.4959 18.1854C21.8399 17.4294 22.8759 16.4494 23.6039 15.2454C24.3319 14.0414 24.6959 12.7954 24.6959 11.5074C24.6959 10.3034 24.3599 9.19738 23.6879 8.18938C23.0439 7.18138 22.0499 6.36938 20.7059 5.75338C19.3619 5.13738 17.7099 4.82938 15.7499 4.82938C13.1459 4.82938 10.6679 5.36138 8.31591 6.42538C5.96391 7.46138 4.07391 8.83338 2.64591 10.5414C1.21791 12.2494 0.503906 14.0554 0.503906 15.9594C0.503906 17.3314 0.881906 18.3254 1.63791 18.9414C2.39391 19.5294 3.51391 19.8234 4.99791 19.8234C4.99791 19.7674 4.89991 19.5434 4.70391 19.1514C4.50791 18.7314 4.40991 18.0034 4.40991 16.9674C4.40991 14.7834 4.91391 12.9214 5.92191 11.3814C6.95791 9.84138 8.28791 8.69338 9.91191 7.93738C11.5359 7.15338 13.2019 6.76138 14.9099 6.76138C16.7859 6.76138 18.1719 7.19538 19.0679 8.06338C19.9919 8.93138 20.4539 10.0094 20.4539 11.2974C20.4539 12.3614 20.1739 13.4254 19.6139 14.4894C19.0539 15.5254 18.3119 16.3934 17.3879 17.0934C16.4639 17.7654 15.4699 18.1014 14.4059 18.1014H14.1539L16.1279 8.77738L9.91191 9.61738L4.19991 36.3294H10.2479L13.6919 20.2434C14.2239 20.1594 14.8679 20.1174 15.6239 20.1174C18.2839 20.1174 19.6139 21.8954 19.6139 25.4514C19.6139 27.3554 19.2639 29.0914 18.5639 30.6594C17.8919 32.2274 16.8559 33.0114 15.4559 33.0114C14.9519 33.0114 14.4759 32.8994 14.0279 32.6754C13.6079 32.4514 13.1459 32.0594 12.6419 31.4994C12.2779 32.3954 12.0959 33.2074 12.0959 33.9354C12.0959 35.0834 12.5019 35.8814 13.3139 36.3294ZM28.0822 34.9854C29.2302 36.0494 30.8402 36.5814 32.9122 36.5814C36.6211 36.5814 39.8461 34.8917 42.5869 31.5123C42.8021 33.0087 43.3403 34.1664 44.2013 34.9854C45.3493 36.0494 46.9593 36.5814 49.0313 36.5814C52.6596 36.5814 55.8246 34.9645 58.5264 31.7306L55.3224 46.8294L61.6644 45.3174L63.8484 35.0694C64.4364 36.0774 65.6264 36.5814 67.4184 36.5814C69.9384 36.5814 71.9684 35.7974 73.5084 34.2294C75.0484 32.6334 76.1404 30.7154 76.7844 28.4754C77.4284 26.2074 77.7504 23.9674 77.7504 21.7554C77.7504 19.4034 77.2884 17.7094 76.3644 16.6734C75.4404 15.6374 74.1944 15.1194 72.6264 15.1194C70.7504 15.1194 69.1124 15.7214 67.7124 16.9254L68.3844 13.7754H62.3364L59.1435 28.8222C57.8593 30.2448 56.6725 31.3052 55.5833 32.0034C54.5193 32.7034 53.2313 33.0534 51.7193 33.0534C50.6553 33.0534 49.8853 32.8154 49.4093 32.3394C48.9333 31.8354 48.6953 30.8974 48.6953 29.5254C48.6953 29.2454 48.7233 28.6854 48.7793 27.8454C50.4593 27.7334 52.0413 27.2854 53.5253 26.5014C55.0093 25.6894 56.1993 24.6254 57.0953 23.3094C57.9913 21.9934 58.4393 20.5514 58.4393 18.9834C58.4393 16.2954 56.8993 14.9514 53.8193 14.9514C51.1873 14.9514 49.0173 15.8054 47.3093 17.5134C45.6013 19.1934 44.3693 21.1954 43.6133 23.5194C42.9222 25.6439 42.547 27.6047 42.4877 29.4016C41.4078 30.5362 40.4 31.4035 39.4642 32.0034C38.4002 32.7034 37.1122 33.0534 35.6002 33.0534C34.5362 33.0534 33.7662 32.8154 33.2902 32.3394C32.8142 31.8354 32.5762 30.8974 32.5762 29.5254C32.5762 29.2454 32.6042 28.6854 32.6602 27.8454C34.3402 27.7334 35.9222 27.2854 37.4062 26.5014C38.8902 25.6894 40.0802 24.6254 40.9762 23.3094C41.8722 21.9934 42.3202 20.5514 42.3202 18.9834C42.3202 16.2954 40.7802 14.9514 37.7002 14.9514C35.0682 14.9514 32.8982 15.8054 31.1902 17.5134C29.4822 19.1934 28.2502 21.1954 27.4942 23.5194C26.7382 25.8434 26.3602 27.9714 26.3602 29.9034C26.3602 32.1994 26.9342 33.8934 28.0822 34.9854ZM35.9362 24.7374C35.0122 25.4094 34.0322 25.7734 32.9962 25.8294C33.4162 23.5894 34.1022 21.5874 35.0542 19.8234C36.0342 18.0594 37.0282 17.1774 38.0362 17.1774C38.7362 17.1774 39.0862 17.7514 39.0862 18.8994C39.0862 20.0474 38.7922 21.1394 38.2042 22.1754C37.6442 23.2114 36.8882 24.0654 35.9362 24.7374ZM52.0553 24.7374C51.1313 25.4094 50.1513 25.7734 49.1153 25.8294C49.5353 23.5894 50.2213 21.5874 51.1733 19.8234C52.1533 18.0594 53.1473 17.1774 54.1553 17.1774C54.8553 17.1774 55.2053 17.7514 55.2053 18.8994C55.2053 20.0474 54.9113 21.1394 54.3233 22.1754C53.7633 23.2114 53.0073 24.0654 52.0553 24.7374ZM69.4344 31.0374C68.5664 32.2974 67.4604 32.9274 66.1164 32.9274C65.2764 32.9274 64.7444 32.6054 64.5204 31.9614L66.9984 20.2014C67.3904 19.5574 67.8384 19.0534 68.3424 18.6894C68.8744 18.3254 69.3924 18.1434 69.8964 18.1434C71.2964 18.1434 71.9964 19.3054 71.9964 21.6294C71.9964 23.1414 71.7864 24.7794 71.3664 26.5434C70.9744 28.2794 70.3304 29.7774 69.4344 31.0374ZM79.9669 34.9854C81.1149 36.0494 82.7249 36.5814 84.7969 36.5814C88.4234 36.5814 91.5871 34.9661 94.288 31.7354L93.3141 36.3294H99.3621L102.722 20.3694C103.366 19.7814 103.884 19.3754 104.276 19.1514C104.696 18.8994 105.2 18.7734 105.788 18.7734C106.012 18.7734 106.166 18.8574 106.25 19.0254C106.334 19.1934 106.418 19.4594 106.502 19.8234C106.614 20.3834 106.768 20.8174 106.964 21.1254C107.188 21.4054 107.608 21.5454 108.224 21.5454C109.176 21.5454 109.918 21.2374 110.45 20.6214C110.982 20.0054 111.248 19.2914 111.248 18.4794C111.248 17.6114 110.982 16.8694 110.45 16.2534C109.946 15.6374 109.246 15.3294 108.35 15.3294C107.454 15.3294 106.614 15.5534 105.83 16.0014C105.074 16.4494 104.22 17.0934 103.268 17.9334L103.814 15.3294H97.7661L94.9045 28.8274C93.622 30.2473 92.4368 31.306 91.3489 32.0034C90.2849 32.7034 88.9969 33.0534 87.4849 33.0534C86.4209 33.0534 85.6509 32.8154 85.1749 32.3394C84.6989 31.8354 84.4609 30.8974 84.4609 29.5254C84.4609 29.2454 84.4889 28.6854 84.5449 27.8454C86.2249 27.7334 87.8069 27.2854 89.2909 26.5014C90.7749 25.6894 91.9649 24.6254 92.8609 23.3094C93.7569 21.9934 94.2049 20.5514 94.2049 18.9834C94.2049 16.2954 92.6649 14.9514 89.5849 14.9514C86.9529 14.9514 84.7829 15.8054 83.0749 17.5134C81.3669 19.1934 80.1349 21.1954 79.3789 23.5194C78.6229 25.8434 78.2449 27.9714 78.2449 29.9034C78.2449 32.1994 78.8189 33.8934 79.9669 34.9854ZM87.8209 24.7374C86.8969 25.4094 85.9169 25.7734 84.8809 25.8294C85.3009 23.5894 85.9869 21.5874 86.9389 19.8234C87.9189 18.0594 88.9129 17.1774 89.9209 17.1774C90.6209 17.1774 90.9709 17.7514 90.9709 18.8994C90.9709 20.0474 90.6769 21.1394 90.0889 22.1754C89.5289 23.2114 88.7729 24.0654 87.8209 24.7374Z" fill="white"/>
</svg>
