<svg width="251" height="68" viewBox="0 0 251 68" fill="none" xmlns="http://www.w3.org/2000/svg">
<path d="M108.291 49.9502V19.4082C108.291 18.4479 108.698 17.6829 109.512 17.1133C110.342 16.5436 111.074 16.2588 111.709 16.2588C112.262 16.2588 112.539 16.6087 112.539 17.3086V47.6064C112.539 48.4202 112.376 49.0143 112.051 49.3887C111.628 49.877 111.107 50.3083 110.488 50.6826C109.886 51.057 109.406 51.2441 109.048 51.2441C108.901 51.2441 108.779 51.2279 108.682 51.1953C108.6 51.1628 108.511 51.0488 108.413 50.8535C108.332 50.6419 108.291 50.3408 108.291 49.9502ZM105.068 46.1416L88.54 19.7988C88.3447 19.4896 88.2471 19.2048 88.2471 18.9443C88.2471 18.5863 88.4342 18.2038 88.8086 17.7969C89.7852 16.7715 90.6966 16.2588 91.543 16.2588C91.9499 16.2588 92.3161 16.5192 92.6416 17.04L105.874 37.9629C106.313 38.6465 106.582 39.2812 106.68 39.8672C106.777 40.4368 106.826 41.3646 106.826 42.6504C106.826 45.515 106.525 46.9473 105.923 46.9473C105.711 46.9473 105.459 46.7194 105.166 46.2637C105.117 46.2148 105.085 46.1742 105.068 46.1416ZM92.1533 28.5391C92.4137 29.1413 92.5439 29.8818 92.5439 30.7607V47.6064C92.5439 48.4202 92.3812 49.0143 92.0557 49.3887C91.6488 49.877 91.1279 50.3083 90.4932 50.6826C89.8747 51.057 89.4027 51.2441 89.0771 51.2441C88.5563 51.2441 88.2959 50.8942 88.2959 50.1943V24.4375C88.2959 24.0469 88.4505 23.8516 88.7598 23.8516C88.9714 23.8516 89.1992 23.998 89.4434 24.291C89.7038 24.584 90.1188 25.1536 90.6885 26C91.3395 26.9766 91.8278 27.8229 92.1533 28.5391ZM134.365 41.332V47.6064C134.365 48.404 134.194 48.998 133.853 49.3887C133.446 49.877 132.868 50.3083 132.119 50.6826C131.387 51.057 130.785 51.2441 130.312 51.2441C129.743 51.2441 129.458 50.8942 129.458 50.1943V41.332C129.458 40.7461 129.661 40.3473 130.068 40.1357C130.492 39.9242 131.118 39.8184 131.948 39.8184C132.843 39.8184 133.47 39.9242 133.828 40.1357C134.186 40.3311 134.365 40.7298 134.365 41.332ZM129.458 36.5713V23.5586C129.458 22.9727 129.653 22.5902 130.044 22.4111C130.451 22.2158 131.069 22.1182 131.899 22.1182C132.811 22.1182 133.446 22.2158 133.804 22.4111C134.178 22.5902 134.365 22.9727 134.365 23.5586V33.7393C134.365 34.4391 134.674 34.7891 135.293 34.7891H139.37C140.07 34.7891 140.42 34.9925 140.42 35.3994C140.42 35.79 140.062 36.2458 139.346 36.7666C138.646 37.2712 137.743 37.6943 136.636 38.0361C135.952 38.2477 134.259 38.3535 131.558 38.3535C130.728 38.3535 130.166 38.207 129.873 37.9141C129.596 37.6211 129.458 37.1735 129.458 36.5713ZM145.156 28.8564C145.156 23.4365 141.942 20.7266 135.513 20.7266H130.41C130.199 20.7266 130.028 20.7184 129.897 20.7021C129.784 20.6859 129.678 20.637 129.58 20.5557C129.499 20.458 129.458 20.3278 129.458 20.165C129.458 19.4814 129.922 18.749 130.85 17.9678C131.794 17.1865 132.729 16.7796 133.657 16.7471L136.245 16.7227L139.37 16.7471C140.249 16.7633 141.136 16.8691 142.031 17.0645C142.943 17.2435 143.911 17.5934 144.937 18.1143C145.962 18.6351 146.865 19.2943 147.646 20.0918C148.428 20.8893 149.071 21.9635 149.575 23.3145C150.096 24.6654 150.356 26.1953 150.356 27.9043C150.356 28.5716 150.267 29.304 150.088 30.1016C149.925 30.8991 149.608 31.7861 149.136 32.7627C148.68 33.7393 148.102 34.6344 147.402 35.4482C146.719 36.2458 145.791 36.9619 144.619 37.5967C143.447 38.2152 142.129 38.6139 140.664 38.793H140.518C140.078 38.793 139.858 38.6058 139.858 38.2314C139.858 38.0036 140.046 37.7757 140.42 37.5479C143.577 35.5947 145.156 32.6976 145.156 28.8564ZM162.637 51.7568C161.27 51.7568 160.09 51.5778 159.097 51.2197C158.12 50.8779 157.323 50.3083 156.704 49.5107C156.086 48.6969 155.63 47.6471 155.337 46.3613C155.044 45.0755 154.897 43.4886 154.897 41.6006V28.3438C154.897 27.9043 155.011 27.4974 155.239 27.123C155.483 26.7324 155.776 26.3988 156.118 26.1221C156.476 25.8454 156.859 25.6338 157.266 25.4873C157.689 25.3245 158.079 25.2432 158.438 25.2432C159.007 25.2432 159.292 25.5931 159.292 26.293V41.1611L159.39 43.041C159.455 43.9688 159.585 44.7663 159.78 45.4336C159.976 46.0846 160.269 46.6217 160.659 47.0449C161.05 47.4518 161.538 47.7529 162.124 47.9482C162.726 48.1436 163.451 48.2412 164.297 48.2412C165.648 48.2412 166.877 47.9238 167.983 47.2891C168.293 47.11 168.496 47.0205 168.594 47.0205C168.74 47.0205 168.838 47.0775 168.887 47.1914C168.952 47.3053 168.984 47.5495 168.984 47.9238C168.984 48.6074 168.748 49.1934 168.276 49.6816C167.804 50.1536 167.235 50.5443 166.567 50.8535C165.9 51.1628 165.2 51.3906 164.468 51.5371C163.752 51.6836 163.141 51.7568 162.637 51.7568ZM174.624 26.293V48.168C174.624 49.0469 174.217 49.7793 173.403 50.3652C172.606 50.9512 171.833 51.2441 171.084 51.2441C170.514 51.2441 170.229 50.8942 170.229 50.1943V28.3193C170.229 27.473 170.636 26.7487 171.45 26.1465C172.264 25.5443 173.037 25.2432 173.77 25.2432C174.339 25.2432 174.624 25.5931 174.624 26.293ZM181.509 44.8721L189.858 31.6885C190.184 31.1839 190.558 30.8503 190.981 30.6875C191.405 30.5085 192.039 30.4189 192.886 30.4189C194.009 30.4189 194.57 30.6305 194.57 31.0537C194.57 31.2653 194.432 31.599 194.155 32.0547L185.635 45.5312C185.26 46.166 184.504 46.4834 183.364 46.4834H182.314C181.501 46.4834 181.094 46.2799 181.094 45.873C181.094 45.6615 181.232 45.3278 181.509 44.8721ZM182.656 26H196.328C197.028 26 197.378 26.2523 197.378 26.7568C197.378 26.9847 197.256 27.3102 197.012 27.7334C196.768 28.1566 196.418 28.5716 195.962 28.9785C195.588 29.3203 194.993 29.4912 194.18 29.4912H179.653C179.425 29.4912 179.246 29.4831 179.116 29.4668C179.002 29.4342 178.896 29.361 178.799 29.2471C178.701 29.1331 178.652 28.9704 178.652 28.7588C178.652 28.1891 179.084 27.5869 179.946 26.9521C180.825 26.3174 181.729 26 182.656 26ZM181.509 47.5088H196.133C196.833 47.5088 197.183 47.7611 197.183 48.2656C197.183 48.4935 197.061 48.819 196.816 49.2422C196.572 49.6654 196.222 50.0804 195.767 50.4873C195.392 50.8291 194.798 51 193.984 51H179.458C178.807 51 178.481 50.7721 178.481 50.3164C178.481 49.7142 178.815 49.0794 179.482 48.4121C180.052 47.8099 180.728 47.5088 181.509 47.5088ZM202.261 44.8721L210.61 31.6885C210.936 31.1839 211.31 30.8503 211.733 30.6875C212.157 30.5085 212.791 30.4189 213.638 30.4189C214.761 30.4189 215.322 30.6305 215.322 31.0537C215.322 31.2653 215.184 31.599 214.907 32.0547L206.387 45.5312C206.012 46.166 205.256 46.4834 204.116 46.4834H203.066C202.253 46.4834 201.846 46.2799 201.846 45.873C201.846 45.6615 201.984 45.3278 202.261 44.8721ZM203.408 26H217.08C217.78 26 218.13 26.2523 218.13 26.7568C218.13 26.9847 218.008 27.3102 217.764 27.7334C217.52 28.1566 217.17 28.5716 216.714 28.9785C216.34 29.3203 215.745 29.4912 214.932 29.4912H200.405C200.177 29.4912 199.998 29.4831 199.868 29.4668C199.754 29.4342 199.648 29.361 199.551 29.2471C199.453 29.1331 199.404 28.9704 199.404 28.7588C199.404 28.1891 199.836 27.5869 200.698 26.9521C201.577 26.3174 202.48 26 203.408 26ZM202.261 47.5088H216.885C217.585 47.5088 217.935 47.7611 217.935 48.2656C217.935 48.4935 217.812 48.819 217.568 49.2422C217.324 49.6654 216.974 50.0804 216.519 50.4873C216.144 50.8291 215.55 51 214.736 51H200.21C199.559 51 199.233 50.7721 199.233 50.3164C199.233 49.7142 199.567 49.0794 200.234 48.4121C200.804 47.8099 201.479 47.5088 202.261 47.5088ZM222.134 50.1943V16.5518C222.134 15.6729 222.533 14.9486 223.33 14.3789C224.128 13.793 224.909 13.5 225.674 13.5C226.243 13.5 226.528 13.8499 226.528 14.5498V48.1924C226.528 49.0876 226.13 49.82 225.332 50.3896C224.535 50.9593 223.753 51.2441 222.988 51.2441C222.419 51.2441 222.134 50.8942 222.134 50.1943ZM236.538 35.4482C236.538 35.904 236.676 36.1969 236.953 36.3271C237.246 36.4411 237.669 36.498 238.223 36.498C239.639 36.498 240.851 36.376 241.86 36.1318C242.869 35.8877 243.643 35.5459 244.18 35.1064C244.717 34.667 245.099 34.2031 245.327 33.7148C245.571 33.2266 245.693 32.6895 245.693 32.1035C245.693 31.0944 245.343 30.2887 244.644 29.6865C243.944 29.068 242.821 28.7588 241.274 28.7588C238.849 28.7588 236.571 29.5238 234.438 31.0537C233.804 31.5257 233.405 31.7617 233.242 31.7617C232.965 31.7617 232.827 31.6071 232.827 31.2979C232.827 30.891 233.063 30.3945 233.535 29.8086C234.414 28.6855 235.415 27.766 236.538 27.0498C237.661 26.3337 238.687 25.8535 239.614 25.6094C240.542 25.3652 241.462 25.2432 242.373 25.2432C243.545 25.2432 244.603 25.3652 245.547 25.6094C246.491 25.8535 247.329 26.236 248.062 26.7568C248.794 27.2614 249.364 27.9613 249.771 28.8564C250.177 29.7354 250.381 30.7689 250.381 31.957C250.381 34.4961 249.168 36.4574 246.743 37.8408C244.334 39.208 241.038 39.8916 236.855 39.8916C235.684 39.8916 234.357 39.8265 232.876 39.6963C232.144 39.6475 231.777 39.2894 231.777 38.6221C231.777 36.8154 232.038 35.4645 232.559 34.5693C233.079 33.6579 233.755 32.958 234.585 32.4697C235.399 31.9977 236.017 31.7617 236.44 31.7617C236.831 31.7617 237.026 32.0059 237.026 32.4941C237.026 32.6895 236.945 33.1696 236.782 33.9346C236.619 34.6833 236.538 35.1878 236.538 35.4482ZM231.973 42.2598C231.973 41.4134 232.363 40.9902 233.145 40.9902H235.244C235.667 40.9902 235.96 41.0716 236.123 41.2344C236.302 41.3971 236.44 41.7552 236.538 42.3086C237.173 46.2637 239.338 48.2412 243.032 48.2412C243.96 48.2412 244.831 48.1273 245.645 47.8994C246.458 47.6715 247.085 47.4193 247.524 47.1426C247.98 46.8659 248.395 46.6136 248.77 46.3857C249.16 46.1579 249.445 46.0439 249.624 46.0439C249.998 46.0439 250.186 46.2474 250.186 46.6543C250.186 46.9961 249.998 47.4355 249.624 47.9727C249.25 48.5098 248.713 49.0713 248.013 49.6572C247.329 50.2269 246.377 50.7152 245.156 51.1221C243.952 51.5452 242.642 51.7568 241.226 51.7568C238.296 51.7568 236.017 50.8779 234.39 49.1201C232.778 47.346 231.973 45.0592 231.973 42.2598Z" fill="white" fill-opacity="0.7"/>
<rect y="1" width="67" height="67" rx="6" fill="white" fill-opacity="0.1"/>
<rect x="6.3208" y="9.52734" width="24.0189" height="23.1455" rx="3" fill="white" fill-opacity="0.9"/>
<rect x="35.3962" y="9.52734" width="24.0189" height="23.1455" rx="3" fill="white" fill-opacity="0.9"/>
<rect x="35.3962" y="37.5454" width="24.0189" height="23.1455" rx="3" fill="black" fill-opacity="0.15"/>
<rect x="6.3208" y="37.5454" width="24.0189" height="23.1455" rx="3" fill="white" fill-opacity="0.9"/>
</svg>
