<svg width="60" height="54" viewBox="0 0 60 54" fill="none" xmlns="http://www.w3.org/2000/svg">
<path fill-rule="evenodd" clip-rule="evenodd" d="M6.25583 50.1484C12.2716 35.8987 19.145 19.6178 45 14.184C45 14.184 15 14.184 5.25004 40.4255C5.25004 40.4255 0 35.4609 0 29.7875C0 24.1132 5.99996 12.0566 21 9.21943C25.247 8.41676 29.9749 7.78452 34.6389 7.16083L34.7009 7.15254L34.7065 7.15179C46.4918 5.57732 57.8533 4.05946 60 0C60 0 51 48.2272 18.0001 48.2272C16.9199 48.2272 15.4201 47.8578 13.98 47.3763L11.13 53.9006L5.46008 52.0285C5.68595 51.4975 5.91181 50.9628 6.13886 50.4253L6.25583 50.1484Z" fill="white"/>
</svg>
