<svg width="40" height="62" viewBox="0 0 40 62" fill="none" xmlns="http://www.w3.org/2000/svg">
<path d="M37.1 17.14C37.1 23.14 35.6 28.88 32.6 34.36C29.6 39.8 25.84 44.26 21.32 47.74C23.4 49.1 25.04 50.12 26.24 50.8C27.44 51.52 28.98 52.22 30.86 52.9C32.74 53.58 34.48 53.92 36.08 53.92L38.6 53.74C39.28 54.7 39.74 55.48 39.98 56.08C39.3 57.48 38.32 58.68 37.04 59.68C35.76 60.68 34.28 61.18 32.6 61.18C31.08 61.18 29.7 60.84 28.46 60.16C27.22 59.52 26.28 59 25.64 58.6C25 58.24 24.18 57.66 23.18 56.86C22.22 56.06 21.48 55.44 20.96 55C20.48 54.6 19.68 53.9 18.56 52.9C17.48 51.94 16.76 51.3 16.4 50.98C13.2 52.62 10.42 53.44 8.06 53.44C5.7 53.44 3.88 52.94 2.6 51.94C1.36 50.94 0.74 49.6 0.74 47.92C0.74 46.28 1.38 44.86 2.66 43.66C3.94 42.5 5.72 41.92 8 41.92C10.32 41.92 13.12 42.84 16.4 44.68C19.56 41.92 22.2 38.16 24.32 33.4C26.44 28.64 27.5 22.98 27.5 16.42C27.5 8.46 25.7 4.48 22.1 4.48C19.14 4.48 16.68 6.66 14.72 11.02C12.8 15.38 11.84 20.36 11.84 25.96C11.84 29.96 12.46 31.96 13.7 31.96C14.7 31.96 15.58 30.96 16.34 28.96C17.14 26.92 17.54 24.9 17.54 22.9C17.54 20.9 17.42 19.24 17.18 17.92C18.34 17.44 19.58 17.2 20.9 17.2H21.02C21.18 18.24 21.26 19.42 21.26 20.74C21.26 25.82 20.34 29.98 18.5 33.22C16.7 36.46 14.2 38.08 11 38.08C8.4 38.08 6.38 36.98 4.94 34.78C3.54 32.58 2.84 29.38 2.84 25.18C2.84 20.94 3.68 16.92 5.36 13.12C7.08 9.32 9.54 6.26 12.74 3.94C15.94 1.58 19.54 0.399998 23.54 0.399998C29.34 0.399998 33.3 2.88 35.42 7.84C36.54 10.48 37.1 13.58 37.1 17.14ZM4.64 47.32C4.64 48.44 5.68 49 7.76 49C8.88 49 10.34 48.52 12.14 47.56C10.18 46.24 8.5 45.58 7.1 45.58C6.34 45.58 5.74 45.76 5.3 46.12C4.86 46.48 4.64 46.88 4.64 47.32Z" fill="white"/>
</svg>
