<svg width="230" height="48" viewBox="0 0 230 64" fill="none" xmlns="http://www.w3.org/2000/svg">
<path d="M168 28C168 23.0294 172.029 19 177 19H221C225.971 19 230 23.0294 230 28V45C230 49.9706 225.971 54 221 54H177C172.029 54 168 49.9706 168 45V28Z" fill="#FF6600"/>
<path d="M29.21 26.174C29.21 30.774 28.06 35.1747 25.76 39.376C23.46 43.5467 20.5773 46.966 17.112 49.634C18.7067 50.6767 19.964 51.4587 20.884 51.98C21.804 52.532 22.9847 53.0687 24.426 53.59C25.8673 54.1113 27.2013 54.372 28.428 54.372L30.36 54.234C30.8813 54.97 31.234 55.568 31.418 56.028C30.8967 57.1013 30.1453 58.0213 29.164 58.788C28.1827 59.5547 27.048 59.938 25.76 59.938C24.5947 59.938 23.5367 59.6773 22.586 59.156C21.6353 58.6653 20.9147 58.2667 20.424 57.96C19.9333 57.684 19.3047 57.2393 18.538 56.626C17.802 56.0127 17.2347 55.5373 16.836 55.2C16.468 54.8933 15.8547 54.3567 14.996 53.59C14.168 52.854 13.616 52.3633 13.34 52.118C10.8867 53.3753 8.75533 54.004 6.946 54.004C5.13667 54.004 3.74133 53.6207 2.76 52.854C1.80933 52.0873 1.334 51.06 1.334 49.772C1.334 48.5147 1.82467 47.426 2.806 46.506C3.78733 45.6167 5.152 45.172 6.9 45.172C8.67867 45.172 10.8253 45.8773 13.34 47.288C15.7627 45.172 17.7867 42.2893 19.412 38.64C21.0373 34.9907 21.85 30.6513 21.85 25.622C21.85 19.5193 20.47 16.468 17.71 16.468C15.4407 16.468 13.5547 18.1393 12.052 21.482C10.58 24.8247 9.844 28.6427 9.844 32.936C9.844 36.0027 10.3193 37.536 11.27 37.536C12.0367 37.536 12.7113 36.7693 13.294 35.236C13.9073 33.672 14.214 32.1233 14.214 30.59C14.214 29.0567 14.122 27.784 13.938 26.772C14.8273 26.404 15.778 26.22 16.79 26.22H16.882C17.0047 27.0173 17.066 27.922 17.066 28.934C17.066 32.8287 16.3607 36.018 14.95 38.502C13.57 40.986 11.6533 42.228 9.2 42.228C7.20667 42.228 5.658 41.3847 4.554 39.698C3.48067 38.0113 2.944 35.558 2.944 32.338C2.944 29.0873 3.588 26.0053 4.876 23.092C6.19467 20.1787 8.08067 17.8327 10.534 16.054C12.9873 14.2447 15.7473 13.34 18.814 13.34C23.2607 13.34 26.2967 15.2413 27.922 19.044C28.7807 21.068 29.21 23.4447 29.21 26.174ZM4.324 49.312C4.324 50.1707 5.12133 50.6 6.716 50.6C7.57467 50.6 8.694 50.232 10.074 49.496C8.57133 48.484 7.28333 47.978 6.21 47.978C5.62733 47.978 5.16733 48.116 4.83 48.392C4.49267 48.668 4.324 48.9747 4.324 49.312ZM30.8574 42.55C30.8574 41.2313 31.256 38.9927 32.0534 35.834C32.8507 32.6447 33.2494 30.6973 33.2494 29.992C33.2494 29.256 32.6974 28.29 31.5934 27.094L31.6394 26.496C33.7247 26.0667 36.4694 25.852 39.8734 25.852C40.0267 26.2507 40.1034 26.9713 40.1034 28.014C40.1034 29.0567 39.674 31.28 38.8154 34.684C37.9567 38.088 37.5274 40.204 37.5274 41.032C37.5274 41.86 37.834 42.274 38.4474 42.274C39.3367 42.274 40.364 41.952 41.5294 41.308C41.652 40.572 41.9587 39.1613 42.4494 37.076C43.5534 32.1693 44.1054 28.658 44.1054 26.542C45.1787 26.1127 47.1107 25.898 49.9014 25.898H50.7754C50.7754 27.3393 50.346 30.1607 49.4874 34.362C48.6287 38.5327 48.1994 40.986 48.1994 41.722C48.1994 42.4273 48.3527 42.78 48.6594 42.78C48.8434 42.78 49.7174 42.412 51.2814 41.676L52.1554 43.148C49.426 45.4173 47.034 46.552 44.9794 46.552C43.998 46.552 43.1547 46.276 42.4494 45.724C41.7747 45.172 41.3914 44.4513 41.2994 43.562C38.8154 45.586 36.5614 46.598 34.5374 46.598C33.464 46.598 32.5747 46.2453 31.8694 45.54C31.1947 44.8347 30.8574 43.838 30.8574 42.55ZM53.2605 38.042C53.2605 34.2087 54.4105 31.188 56.7105 28.98C59.0411 26.7413 61.6785 25.622 64.6225 25.622C66.4318 25.622 67.9191 26.0667 69.0845 26.956C70.2498 27.8453 70.8325 29.0413 70.8325 30.544C70.8325 32.016 70.4491 33.258 69.6825 34.27C68.9465 35.282 68.0418 36.064 66.9685 36.616C64.7911 37.6893 62.7978 38.364 60.9885 38.64L59.8845 38.778C60.0991 41.6607 61.2798 43.102 63.4265 43.102C64.1625 43.102 64.9445 42.918 65.7725 42.55C66.6005 42.182 67.2445 41.814 67.7045 41.446L68.3945 40.894L69.4985 42.366C69.2531 42.7033 68.7625 43.148 68.0265 43.7C67.2905 44.252 66.6005 44.712 65.9565 45.08C64.1778 46.0613 62.2305 46.552 60.1145 46.552C57.9985 46.552 56.3271 45.8007 55.1005 44.298C53.8738 42.7953 53.2605 40.71 53.2605 38.042ZM59.8385 36.524C61.4025 36.248 62.6445 35.5887 63.5645 34.546C64.4845 33.5033 64.9445 32.154 64.9445 30.498C64.9445 28.842 64.4538 28.014 63.4725 28.014C62.3071 28.014 61.4025 29.0107 60.7585 31.004C60.1451 32.9667 59.8385 34.8067 59.8385 36.524ZM86.4807 39.974C86.4807 41.906 85.6221 43.4853 83.9047 44.712C82.2181 45.9387 80.2861 46.552 78.1087 46.552C75.9314 46.552 74.1987 46.092 72.9107 45.172C71.6534 44.252 71.0247 43.4393 71.0247 42.734C71.0247 42.3047 71.5614 41.6147 72.6347 40.664C73.7081 39.6827 74.6127 39.0847 75.3487 38.87C76.8821 40.0047 78.1394 41.7987 79.1207 44.252C80.2554 44.16 80.8227 43.6233 80.8227 42.642C80.8227 41.2313 79.5807 39.238 77.0967 36.662C74.6127 34.0553 73.3707 31.9853 73.3707 30.452C73.3707 28.9187 74.0607 27.738 75.4407 26.91C76.8207 26.0513 78.4767 25.622 80.4087 25.622C82.3714 25.622 83.8434 25.9747 84.8247 26.68C85.8061 27.3547 86.2967 28.29 86.2967 29.486C86.2967 30.6513 85.3614 32.2767 83.4907 34.362C83.7054 34.5767 83.9814 34.868 84.3187 35.236C84.6561 35.5733 85.1007 36.2327 85.6527 37.214C86.2047 38.1953 86.4807 39.1153 86.4807 39.974ZM82.0647 32.752C83.3527 31.648 83.9967 30.5593 83.9967 29.486C83.9967 28.4127 83.2607 27.876 81.7887 27.876C81.0834 27.876 80.5007 28.0293 80.0407 28.336C79.5807 28.612 79.3507 28.934 79.3507 29.302C79.3507 29.9767 80.0254 30.9273 81.3747 32.154L82.0647 32.752ZM103.016 26.174C102.955 26.9407 102.694 27.83 102.234 28.842C101.069 28.7193 99.9649 28.658 98.9223 28.658H98.0943C96.6836 35.4967 95.9783 39.7593 95.9783 41.446C95.9783 42.3353 96.1623 42.78 96.5303 42.78C96.9289 42.78 97.9563 42.3967 99.6123 41.63L100.44 43.148C97.7109 45.4173 95.1809 46.552 92.8503 46.552C91.7769 46.552 90.8876 46.2147 90.1823 45.54C89.5076 44.8653 89.1703 43.976 89.1703 42.872C89.1703 41.7373 89.2929 40.4647 89.5383 39.054C89.8143 37.6433 90.1823 35.926 90.6423 33.902C91.1023 31.8473 91.4396 30.1913 91.6543 28.934C90.5196 29.026 89.6763 29.118 89.1243 29.21C89.0629 28.842 89.0323 28.3513 89.0323 27.738C89.0323 27.094 89.0783 26.5727 89.1703 26.174H92.0683C92.3136 24.518 92.4363 22.954 92.4363 21.482L92.3903 20.056V19.918C94.7823 19.09 97.0363 18.676 99.1523 18.676C99.2749 19.2893 99.3363 20.056 99.3363 20.976C99.3363 21.896 99.0756 23.6287 98.5543 26.174H103.016ZM108.625 46.552C106.509 46.552 104.853 45.816 103.657 44.344C102.461 42.8413 101.863 40.756 101.863 38.088C101.863 34.684 102.767 31.7553 104.577 29.302C106.417 26.8487 108.947 25.622 112.167 25.622L113.823 25.714C114.344 25.438 114.927 25.3 115.571 25.3C117.993 25.3 119.205 27.5847 119.205 32.154C120.462 32.0927 121.735 31.924 123.023 31.648L123.759 31.464L124.035 33.258C123.023 33.6873 121.658 34.0707 119.941 34.408L119.021 34.592C118.438 37.812 117.257 40.618 115.479 43.01C113.7 45.3713 111.415 46.552 108.625 46.552ZM111.109 42.596C112.397 42.596 113.547 41.768 114.559 40.112C115.601 38.456 116.322 36.708 116.721 34.868C113.439 34.868 111.799 33.6413 111.799 31.188C111.799 30.2067 111.998 29.2867 112.397 28.428L112.627 27.968C112.504 27.9067 112.351 27.876 112.167 27.876C111.983 27.876 111.845 27.9067 111.753 27.968C110.986 28.4587 110.265 29.6087 109.591 31.418C108.916 33.2273 108.579 35.2973 108.579 37.628C108.579 40.94 109.422 42.596 111.109 42.596ZM103.887 21.574C104.316 17.2193 105.865 15.042 108.533 15.042C109.575 15.042 111.093 15.318 113.087 15.87C115.111 16.3913 116.537 16.652 117.365 16.652C118.193 16.652 118.775 16.56 119.113 16.376C119.45 16.192 119.833 15.732 120.263 14.996L121.689 15.272C121.566 16.6827 121.321 17.8633 120.953 18.814C120.247 20.6233 118.929 21.528 116.997 21.528C116.291 21.528 114.973 21.2673 113.041 20.746C111.139 20.194 109.713 19.918 108.763 19.918C107.843 19.918 107.153 20.056 106.693 20.332C106.263 20.5773 105.819 21.0987 105.359 21.896L103.887 21.574ZM120.823 38.042C120.823 34.2087 121.973 31.188 124.273 28.98C126.604 26.7413 129.241 25.622 132.185 25.622C133.994 25.622 135.482 26.0667 136.647 26.956C137.812 27.8453 138.395 29.0413 138.395 30.544C138.395 32.016 138.012 33.258 137.245 34.27C136.509 35.282 135.604 36.064 134.531 36.616C132.354 37.6893 130.36 38.364 128.551 38.64L127.447 38.778C127.662 41.6607 128.842 43.102 130.989 43.102C131.725 43.102 132.507 42.918 133.335 42.55C134.163 42.182 134.807 41.814 135.267 41.446L135.957 40.894L137.061 42.366C136.816 42.7033 136.325 43.148 135.589 43.7C134.853 44.252 134.163 44.712 133.519 45.08C131.74 46.0613 129.793 46.552 127.677 46.552C125.561 46.552 123.89 45.8007 122.663 44.298C121.436 42.7953 120.823 40.71 120.823 38.042ZM127.401 36.524C128.965 36.248 130.207 35.5887 131.127 34.546C132.047 33.5033 132.507 32.154 132.507 30.498C132.507 28.842 132.016 28.014 131.035 28.014C129.87 28.014 128.965 29.0107 128.321 31.004C127.708 32.9667 127.401 34.8067 127.401 36.524ZM154.043 39.974C154.043 41.906 153.185 43.4853 151.467 44.712C149.781 45.9387 147.849 46.552 145.671 46.552C143.494 46.552 141.761 46.092 140.473 45.172C139.216 44.252 138.587 43.4393 138.587 42.734C138.587 42.3047 139.124 41.6147 140.197 40.664C141.271 39.6827 142.175 39.0847 142.911 38.87C144.445 40.0047 145.702 41.7987 146.683 44.252C147.818 44.16 148.385 43.6233 148.385 42.642C148.385 41.2313 147.143 39.238 144.659 36.662C142.175 34.0553 140.933 31.9853 140.933 30.452C140.933 28.9187 141.623 27.738 143.003 26.91C144.383 26.0513 146.039 25.622 147.971 25.622C149.934 25.622 151.406 25.9747 152.387 26.68C153.369 27.3547 153.859 28.29 153.859 29.486C153.859 30.6513 152.924 32.2767 151.053 34.362C151.268 34.5767 151.544 34.868 151.881 35.236C152.219 35.5733 152.663 36.2327 153.215 37.214C153.767 38.1953 154.043 39.1153 154.043 39.974ZM149.627 32.752C150.915 31.648 151.559 30.5593 151.559 29.486C151.559 28.4127 150.823 27.876 149.351 27.876C148.646 27.876 148.063 28.0293 147.603 28.336C147.143 28.612 146.913 28.934 146.913 29.302C146.913 29.9767 147.588 30.9273 148.937 32.154L149.627 32.752Z" fill="white"/>
<path d="M185.826 38.8145H182.164V36.7051H185.826C186.425 36.7051 186.91 36.6074 187.281 36.4121C187.659 36.2103 187.936 35.9368 188.111 35.5918C188.287 35.2402 188.375 34.8398 188.375 34.3906C188.375 33.9544 188.287 33.5475 188.111 33.1699C187.936 32.7923 187.659 32.4863 187.281 32.252C186.91 32.0176 186.425 31.9004 185.826 31.9004H183.043V44H180.357V29.7812H185.826C186.933 29.7812 187.877 29.9798 188.658 30.377C189.446 30.7676 190.045 31.3112 190.455 32.0078C190.872 32.6979 191.08 33.4857 191.08 34.3711C191.08 35.2891 190.872 36.0801 190.455 36.7441C190.045 37.4082 189.446 37.9193 188.658 38.2773C187.877 38.6354 186.933 38.8145 185.826 38.8145ZM193.189 29.7812H198.355C199.436 29.7812 200.364 29.944 201.139 30.2695C201.913 30.5951 202.509 31.0768 202.926 31.7148C203.342 32.3529 203.551 33.1374 203.551 34.0684C203.551 34.804 203.421 35.4421 203.16 35.9824C202.9 36.5228 202.532 36.9753 202.057 37.3398C201.588 37.7044 201.035 37.9909 200.396 38.1992L199.557 38.6289H194.996L194.977 36.5098H198.385C198.938 36.5098 199.397 36.4121 199.762 36.2168C200.126 36.0215 200.4 35.7513 200.582 35.4062C200.771 35.0612 200.865 34.6673 200.865 34.2246C200.865 33.7493 200.774 33.3392 200.592 32.9941C200.41 32.6426 200.133 32.3724 199.762 32.1836C199.391 31.9948 198.922 31.9004 198.355 31.9004H195.875V44H193.189V29.7812ZM201.217 44L197.926 37.6328L200.768 37.623L204.098 43.8633V44H201.217ZM217.418 36.5293V37.2617C217.418 38.3359 217.275 39.3027 216.988 40.1621C216.702 41.015 216.295 41.7409 215.768 42.3398C215.24 42.9388 214.612 43.3978 213.883 43.7168C213.154 44.0358 212.343 44.1953 211.451 44.1953C210.572 44.1953 209.765 44.0358 209.029 43.7168C208.3 43.3978 207.669 42.9388 207.135 42.3398C206.601 41.7409 206.188 41.015 205.895 40.1621C205.602 39.3027 205.455 38.3359 205.455 37.2617V36.5293C205.455 35.4486 205.602 34.4818 205.895 33.6289C206.188 32.776 206.598 32.0501 207.125 31.4512C207.652 30.8457 208.281 30.3835 209.01 30.0645C209.745 29.7454 210.553 29.5859 211.432 29.5859C212.324 29.5859 213.134 29.7454 213.863 30.0645C214.592 30.3835 215.221 30.8457 215.748 31.4512C216.282 32.0501 216.692 32.776 216.979 33.6289C217.271 34.4818 217.418 35.4486 217.418 36.5293ZM214.703 37.2617V36.5098C214.703 35.735 214.632 35.0547 214.488 34.4688C214.345 33.8763 214.133 33.3783 213.854 32.9746C213.574 32.571 213.229 32.2682 212.818 32.0664C212.408 31.8581 211.946 31.7539 211.432 31.7539C210.911 31.7539 210.449 31.8581 210.045 32.0664C209.648 32.2682 209.309 32.571 209.029 32.9746C208.749 33.3783 208.535 33.8763 208.385 34.4688C208.242 35.0547 208.17 35.735 208.17 36.5098V37.2617C208.17 38.0299 208.242 38.7103 208.385 39.3027C208.535 39.8952 208.749 40.3965 209.029 40.8066C209.316 41.2103 209.661 41.5163 210.064 41.7246C210.468 41.9329 210.93 42.0371 211.451 42.0371C211.972 42.0371 212.434 41.9329 212.838 41.7246C213.242 41.5163 213.58 41.2103 213.854 40.8066C214.133 40.3965 214.345 39.8952 214.488 39.3027C214.632 38.7103 214.703 38.0299 214.703 37.2617Z" fill="white"/>
</svg>
