<svg width="122" height="42" viewBox="0 0 122 42" fill="none" xmlns="http://www.w3.org/2000/svg">
<path d="M3.13086 33V13.5586H0.273438V8.9375H10.8008V13.5586H7.94336V33H3.13086ZM17.3906 33.2188C13.3073 33.2188 11.2656 31.0996 11.2656 26.8613V18.6309C11.2656 16.6986 11.8079 15.1582 12.8926 14.0098C13.9772 12.8522 15.4766 12.2734 17.3906 12.2734C19.3138 12.2734 20.8177 12.8522 21.9023 14.0098C22.987 15.1582 23.5293 16.6986 23.5293 18.6309V26.8613C23.5293 31.0996 21.4831 33.2188 17.3906 33.2188ZM17.3906 29.4453C17.8008 29.4453 18.0924 29.2995 18.2656 29.0078C18.4479 28.707 18.5391 28.3288 18.5391 27.873V17.8516C18.5391 16.6576 18.1562 16.0605 17.3906 16.0605C16.625 16.0605 16.2422 16.6576 16.2422 17.8516V27.873C16.2422 28.3288 16.3288 28.707 16.502 29.0078C16.6842 29.2995 16.9805 29.4453 17.3906 29.4453ZM25.3477 33V12.4922H30.1328V14.8711C30.3516 14.0326 30.7253 13.39 31.2539 12.9434C31.7826 12.4967 32.5573 12.2734 33.5781 12.2734C34.3984 12.2734 35.0957 12.4648 35.6699 12.8477C36.2533 13.2214 36.6634 13.7181 36.9004 14.3379C37.2741 13.6634 37.7116 13.153 38.2129 12.8066C38.7233 12.4512 39.4479 12.2734 40.3867 12.2734C41.526 12.2734 42.401 12.5195 43.0117 13.0117C43.6315 13.4948 44.0599 14.1693 44.2969 15.0352C44.543 15.8919 44.666 16.8854 44.666 18.0156V33H39.7852V17.9336C39.7852 16.612 39.4479 15.9512 38.7734 15.9512C38.418 15.9512 38.1445 16.0742 37.9531 16.3203C37.7617 16.5573 37.6296 16.8535 37.5566 17.209C37.4837 17.5645 37.4473 17.9199 37.4473 18.2754V33H32.5664V17.9336C32.5664 17.5052 32.5117 17.0768 32.4023 16.6484C32.3021 16.2201 32.0378 16.0059 31.6094 16.0059C31.2448 16.0059 30.9622 16.138 30.7617 16.4023C30.5612 16.6667 30.4245 16.9948 30.3516 17.3867C30.2786 17.7695 30.2422 18.1478 30.2422 18.5215V33H25.3477ZM50.3262 33.2188C49.1868 33.2188 48.3164 32.9544 47.7148 32.4258C47.1224 31.8971 46.7168 31.1725 46.498 30.252C46.2793 29.3314 46.1699 28.2878 46.1699 27.1211C46.1699 25.8724 46.293 24.8516 46.5391 24.0586C46.7852 23.2565 47.2044 22.6003 47.7969 22.0898C48.3984 21.5794 49.2233 21.1465 50.2715 20.791L53.3066 19.752V17.6465C53.3066 16.5436 52.9466 15.9922 52.2266 15.9922C51.5703 15.9922 51.2422 16.4388 51.2422 17.332V18.5625H46.4844C46.4753 18.4896 46.4707 18.3984 46.4707 18.2891C46.4707 18.1706 46.4707 18.0384 46.4707 17.8926C46.4707 15.8509 46.9492 14.4062 47.9062 13.5586C48.8724 12.7018 50.3991 12.2734 52.4863 12.2734C53.5801 12.2734 54.5599 12.4694 55.4258 12.8613C56.2917 13.2441 56.9753 13.8138 57.4766 14.5703C57.987 15.3268 58.2422 16.2611 58.2422 17.373V33H53.375V30.5664C53.138 31.4232 52.7461 32.0794 52.1992 32.5352C51.6523 32.9909 51.028 33.2188 50.3262 33.2188ZM52.2539 29.418C52.6549 29.418 52.9284 29.2493 53.0742 28.9121C53.2201 28.5749 53.293 28.2103 53.293 27.8184V22.1035C52.6185 22.377 52.0944 22.7233 51.7207 23.1426C51.347 23.5527 51.1602 24.1589 51.1602 24.9609V27.5996C51.1602 28.8118 51.5247 29.418 52.2539 29.418ZM62.2754 33V13.5586H59.418V8.9375H69.9453V13.5586H67.0879V33H62.2754ZM71.1758 11.2344V7.16016H76.0703V11.2344H71.1758ZM71.1758 33V12.4922H76.0703V33H71.1758ZM78.0117 33V12.4922H82.7969V14.8711C83.0156 14.0326 83.3893 13.39 83.918 12.9434C84.4466 12.4967 85.2214 12.2734 86.2422 12.2734C87.0625 12.2734 87.7598 12.4648 88.334 12.8477C88.9173 13.2214 89.3275 13.7181 89.5645 14.3379C89.9382 13.6634 90.3757 13.153 90.877 12.8066C91.3874 12.4512 92.112 12.2734 93.0508 12.2734C94.1901 12.2734 95.0651 12.5195 95.6758 13.0117C96.2956 13.4948 96.724 14.1693 96.9609 15.0352C97.207 15.8919 97.3301 16.8854 97.3301 18.0156V33H92.4492V17.9336C92.4492 16.612 92.112 15.9512 91.4375 15.9512C91.082 15.9512 90.8086 16.0742 90.6172 16.3203C90.4258 16.5573 90.2936 16.8535 90.2207 17.209C90.1478 17.5645 90.1113 17.9199 90.1113 18.2754V33H85.2305V17.9336C85.2305 17.5052 85.1758 17.0768 85.0664 16.6484C84.9661 16.2201 84.7018 16.0059 84.2734 16.0059C83.9089 16.0059 83.6263 16.138 83.4258 16.4023C83.2253 16.6667 83.0885 16.9948 83.0156 17.3867C82.9427 17.7695 82.9062 18.1478 82.9062 18.5215V33H78.0117ZM105 33.2188C103.542 33.2188 102.38 32.9453 101.514 32.3984C100.648 31.8516 100.028 31.0632 99.6543 30.0332C99.2806 29.0033 99.0938 27.7637 99.0938 26.3145V18.0703C99.0938 16.1654 99.6406 14.7253 100.734 13.75C101.828 12.7656 103.332 12.2734 105.246 12.2734C109.184 12.2734 111.152 14.2057 111.152 18.0703V19.5605C111.152 21.3652 111.134 22.5775 111.098 23.1973H103.988V27.1621C103.988 27.5267 104.011 27.8867 104.057 28.2422C104.102 28.5885 104.202 28.8757 104.357 29.1035C104.521 29.3314 104.781 29.4453 105.137 29.4453C105.647 29.4453 105.966 29.2266 106.094 28.7891C106.221 28.3424 106.285 27.7637 106.285 27.0527V25.084H111.152V26.2461C111.152 27.7773 110.961 29.0625 110.578 30.1016C110.204 31.1315 109.566 31.9108 108.664 32.4395C107.771 32.959 106.549 33.2188 105 33.2188ZM103.961 20.7637H106.285V18.002C106.285 17.2637 106.194 16.735 106.012 16.416C105.829 16.0879 105.556 15.9238 105.191 15.9238C104.799 15.9238 104.494 16.0788 104.275 16.3887C104.066 16.6986 103.961 17.2363 103.961 18.002V20.7637ZM112.93 33V12.4922H117.906V14.7754C118.143 13.9824 118.562 13.3626 119.164 12.916C119.766 12.4694 120.522 12.2461 121.434 12.2461V16.334C121.033 16.334 120.554 16.3796 119.998 16.4707C119.442 16.5527 118.954 16.6712 118.535 16.8262C118.116 16.972 117.906 17.1361 117.906 17.3184V33H112.93Z" fill="white"/>
</svg>
