<svg width="24" height="24" viewBox="0 0 24 24" fill="none" xmlns="http://www.w3.org/2000/svg">
<path d="M22.6667 24H4C2.93913 24 1.92172 23.6207 1.17157 22.9456C0.421428 22.2705 0 21.3548 0 20.4V3.6C0 2.64522 0.421428 1.72955 1.17157 1.05442C1.92172 0.379285 2.93913 0 4 0H22.6667C23.0203 0 23.3594 0.126428 23.6095 0.351472C23.8595 0.576515 24 0.88174 24 1.2V22.8C24 23.1183 23.8595 23.4235 23.6095 23.6485C23.3594 23.8736 23.0203 24 22.6667 24ZM21.3333 21.6V19.2H4C3.64638 19.2 3.30724 19.3264 3.05719 19.5515C2.80714 19.7765 2.66667 20.0817 2.66667 20.4C2.66667 20.7183 2.80714 21.0235 3.05719 21.2485C3.30724 21.4736 3.64638 21.6 4 21.6H21.3333ZM12 9.6C12.7072 9.6 13.3855 9.34714 13.8856 8.89706C14.3857 8.44697 14.6667 7.83652 14.6667 7.2C14.6667 6.56348 14.3857 5.95303 13.8856 5.50294C13.3855 5.05286 12.7072 4.8 12 4.8C11.2928 4.8 10.6145 5.05286 10.1144 5.50294C9.61429 5.95303 9.33333 6.56348 9.33333 7.2C9.33333 7.83652 9.61429 8.44697 10.1144 8.89706C10.6145 9.34714 11.2928 9.6 12 9.6ZM8 14.4H16C16 13.4452 15.5786 12.5295 14.8284 11.8544C14.0783 11.1793 13.0609 10.8 12 10.8C10.9391 10.8 9.92172 11.1793 9.17157 11.8544C8.42143 12.5295 8 13.4452 8 14.4V14.4Z" fill="white"/>
</svg>
