<svg width="17" height="17" viewBox="0 0 17 17" fill="none" xmlns="http://www.w3.org/2000/svg">
<path d="M14.875 2.125H11.3333C11.3333 0.95293 10.0628 0 8.5 0C6.93724 0 5.66667 0.95293 5.66667 2.125H2.125C0.951823 2.125 0 2.83887 0 3.71875V15.4062C0 16.2861 0.951823 17 2.125 17H14.875C16.0482 17 17 16.2861 17 15.4062V3.71875C17 2.83887 16.0482 2.125 14.875 2.125ZM4.25 14.0781C3.6612 14.0781 3.1875 13.7229 3.1875 13.2812C3.1875 12.8396 3.6612 12.4844 4.25 12.4844C4.8388 12.4844 5.3125 12.8396 5.3125 13.2812C5.3125 13.7229 4.8388 14.0781 4.25 14.0781ZM4.25 10.8906C3.6612 10.8906 3.1875 10.5354 3.1875 10.0938C3.1875 9.65215 3.6612 9.29688 4.25 9.29688C4.8388 9.29688 5.3125 9.65215 5.3125 10.0938C5.3125 10.5354 4.8388 10.8906 4.25 10.8906ZM4.25 7.70312C3.6612 7.70312 3.1875 7.34785 3.1875 6.90625C3.1875 6.46465 3.6612 6.10938 4.25 6.10938C4.8388 6.10938 5.3125 6.46465 5.3125 6.90625C5.3125 7.34785 4.8388 7.70312 4.25 7.70312ZM8.5 1.32812C9.0888 1.32812 9.5625 1.6834 9.5625 2.125C9.5625 2.5666 9.0888 2.92188 8.5 2.92188C7.9112 2.92188 7.4375 2.5666 7.4375 2.125C7.4375 1.6834 7.9112 1.32812 8.5 1.32812ZM14.1667 13.5469C14.1667 13.693 14.0073 13.8125 13.8125 13.8125H7.4375C7.24271 13.8125 7.08333 13.693 7.08333 13.5469V13.0156C7.08333 12.8695 7.24271 12.75 7.4375 12.75H13.8125C14.0073 12.75 14.1667 12.8695 14.1667 13.0156V13.5469ZM14.1667 10.3594C14.1667 10.5055 14.0073 10.625 13.8125 10.625H7.4375C7.24271 10.625 7.08333 10.5055 7.08333 10.3594V9.82812C7.08333 9.68203 7.24271 9.5625 7.4375 9.5625H13.8125C14.0073 9.5625 14.1667 9.68203 14.1667 9.82812V10.3594ZM14.1667 7.17188C14.1667 7.31797 14.0073 7.4375 13.8125 7.4375H7.4375C7.24271 7.4375 7.08333 7.31797 7.08333 7.17188V6.64062C7.08333 6.49453 7.24271 6.375 7.4375 6.375H13.8125C14.0073 6.375 14.1667 6.49453 14.1667 6.64062V7.17188Z" fill="white"/>
</svg>
