<svg width="29" height="28" viewBox="0 0 29 28" fill="none" xmlns="http://www.w3.org/2000/svg">
<path d="M26.2626 13.8086L14.9313 2.55393C14.8497 2.47268 14.7528 2.40821 14.6461 2.36423C14.5394 2.32025 14.4251 2.29761 14.3096 2.29761C14.1941 2.29761 14.0797 2.32025 13.973 2.36423C13.8664 2.40821 13.7694 2.47268 13.6879 2.55393L2.35654 13.8086C2.02642 14.1367 1.83936 14.5824 1.83936 15.0473C1.83936 16.0125 2.62889 16.7973 3.59999 16.7973H4.79392V24.8282C4.79392 25.3121 5.18731 25.7032 5.67423 25.7032H12.5489V19.5782H15.6301V25.7032H22.9449C23.4319 25.7032 23.8252 25.3121 23.8252 24.8282V16.7973H25.0192C25.4868 16.7973 25.9353 16.6141 26.2654 16.2832C26.9504 15.5996 26.9504 14.4922 26.2626 13.8086Z" fill="white"/>
</svg>
