<svg width="33" height="33" viewBox="0 0 33 33" fill="none" xmlns="http://www.w3.org/2000/svg">
<path d="M16.0603 2.98753C14.1926 3.00493 12.4083 3.75908 11.1 5.08408C9.79172 6.40908 9.06656 8.19639 9.08407 10.0528C9.12046 13.9127 13.0994 14.9526 13.4221 19.5128L19.0086 19.4608C19.2453 14.8954 23.2049 13.7814 23.1685 9.92162C23.151 8.06518 22.3923 6.2917 21.0592 4.9913C19.7262 3.69091 17.928 2.97013 16.0603 2.98753ZM16.2991 28.3194C18.2046 28.3017 18.7874 27.2692 18.9665 26.6285L13.6004 26.6785C13.7915 27.3167 14.3937 28.3372 16.2991 28.3194ZM13.5074 25.6773L19.0406 25.6258L18.9919 20.462L13.4587 20.5135L13.5074 25.6773Z" fill="white"/>
</svg>
