<svg width="34" height="30" viewBox="0 0 34 30" fill="none" xmlns="http://www.w3.org/2000/svg">
<path fill-rule="evenodd" clip-rule="evenodd" d="M4.7733 1.73989C4.37528 1.34187 4.37528 0.696542 4.7733 0.298518C5.17133 -0.0995058 5.81665 -0.0995061 6.21467 0.298518L16.6878 10.7717L27.031 0.428502C27.4291 0.0304778 28.0744 0.0304783 28.4724 0.428502C28.8704 0.826526 28.8704 1.47185 28.4724 1.86987L17.3946 12.9477C16.9966 13.3457 16.3513 13.3457 15.9532 12.9477C15.9047 12.8992 15.8621 12.847 15.8255 12.7921L4.7733 1.73989ZM0.49753 11.7253C-0.165843 12.3887 -0.165844 13.4642 0.497529 14.1276L15.635 29.265C15.6927 29.3486 15.7587 29.4281 15.8331 29.5025C16.4964 30.1659 17.572 30.1659 18.2354 29.5025L33.4276 14.3103C34.0909 13.6469 34.0909 12.5714 33.4276 11.908C32.7642 11.2446 31.6886 11.2446 31.0253 11.908L17.0539 25.8794L2.89982 11.7253C2.23644 11.0619 1.1609 11.0619 0.49753 11.7253Z" fill="#E1E1E1"/>
</svg>
