<svg width="20" height="20" viewBox="0 0 20 20" fill="none" xmlns="http://www.w3.org/2000/svg">
<path d="M1.875 4.375V10.625H18.125V9.375H10.625V8.125H18.125V6.875H10.625V5.625H18.125V4.375H1.875ZM3.125 5C3.29076 5 3.44973 5.06585 3.56694 5.18306C3.68415 5.30027 3.75 5.45924 3.75 5.625C3.75 5.79076 3.68415 5.94973 3.56694 6.06694C3.44973 6.18415 3.29076 6.25 3.125 6.25C2.95924 6.25 2.80027 6.18415 2.68306 6.06694C2.56585 5.94973 2.5 5.79076 2.5 5.625C2.5 5.45924 2.56585 5.30027 2.68306 5.18306C2.80027 5.06585 2.95924 5 3.125 5ZM5.625 5C5.79076 5 5.94973 5.06585 6.06694 5.18306C6.18415 5.30027 6.25 5.45924 6.25 5.625C6.25 5.79076 6.18415 5.94973 6.06694 6.06694C5.94973 6.18415 5.79076 6.25 5.625 6.25C5.45924 6.25 5.30027 6.18415 5.18306 6.06694C5.06585 5.94973 5 5.79076 5 5.625C5 5.45924 5.06585 5.30027 5.18306 5.18306C5.30027 5.06585 5.45924 5 5.625 5ZM8.125 5C8.29076 5 8.44973 5.06585 8.56694 5.18306C8.68415 5.30027 8.75 5.45924 8.75 5.625C8.75 5.79076 8.68415 5.94973 8.56694 6.06694C8.44973 6.18415 8.29076 6.25 8.125 6.25C7.95924 6.25 7.80027 6.18415 7.68306 6.06694C7.56585 5.94973 7.5 5.79076 7.5 5.625C7.5 5.45924 7.56585 5.30027 7.68306 5.18306C7.80027 5.06585 7.95924 5 8.125 5ZM4.375 6.875C4.54076 6.875 4.69973 6.94085 4.81694 7.05806C4.93415 7.17527 5 7.33424 5 7.5C5 7.66576 4.93415 7.82473 4.81694 7.94194C4.69973 8.05915 4.54076 8.125 4.375 8.125C4.20924 8.125 4.05027 8.05915 3.93306 7.94194C3.81585 7.82473 3.75 7.66576 3.75 7.5C3.75 7.33424 3.81585 7.17527 3.93306 7.05806C4.05027 6.94085 4.20924 6.875 4.375 6.875ZM6.875 6.875C7.04076 6.875 7.19973 6.94085 7.31694 7.05806C7.43415 7.17527 7.5 7.33424 7.5 7.5C7.5 7.66576 7.43415 7.82473 7.31694 7.94194C7.19973 8.05915 7.04076 8.125 6.875 8.125C6.70924 8.125 6.55027 8.05915 6.43306 7.94194C6.31585 7.82473 6.25 7.66576 6.25 7.5C6.25 7.33424 6.31585 7.17527 6.43306 7.05806C6.55027 6.94085 6.70924 6.875 6.875 6.875ZM9.375 6.875C9.54076 6.875 9.69973 6.94085 9.81694 7.05806C9.93415 7.17527 10 7.33424 10 7.5C10 7.66576 9.93415 7.82473 9.81694 7.94194C9.69973 8.05915 9.54076 8.125 9.375 8.125C9.20924 8.125 9.05027 8.05915 8.93306 7.94194C8.81585 7.82473 8.75 7.66576 8.75 7.5C8.75 7.33424 8.81585 7.17527 8.93306 7.05806C9.05027 6.94085 9.20924 6.875 9.375 6.875ZM3.125 8.75C3.29076 8.75 3.44973 8.81585 3.56694 8.93306C3.68415 9.05027 3.75 9.20924 3.75 9.375C3.75 9.54076 3.68415 9.69973 3.56694 9.81694C3.44973 9.93415 3.29076 10 3.125 10C2.95924 10 2.80027 9.93415 2.68306 9.81694C2.56585 9.69973 2.5 9.54076 2.5 9.375C2.5 9.20924 2.56585 9.05027 2.68306 8.93306C2.80027 8.81585 2.95924 8.75 3.125 8.75ZM5.625 8.75C5.79076 8.75 5.94973 8.81585 6.06694 8.93306C6.18415 9.05027 6.25 9.20924 6.25 9.375C6.25 9.54076 6.18415 9.69973 6.06694 9.81694C5.94973 9.93415 5.79076 10 5.625 10C5.45924 10 5.30027 9.93415 5.18306 9.81694C5.06585 9.69973 5 9.54076 5 9.375C5 9.20924 5.06585 9.05027 5.18306 8.93306C5.30027 8.81585 5.45924 8.75 5.625 8.75ZM8.125 8.75C8.29076 8.75 8.44973 8.81585 8.56694 8.93306C8.68415 9.05027 8.75 9.20924 8.75 9.375C8.75 9.54076 8.68415 9.69973 8.56694 9.81694C8.44973 9.93415 8.29076 10 8.125 10C7.95924 10 7.80027 9.93415 7.68306 9.81694C7.56585 9.69973 7.5 9.54076 7.5 9.375C7.5 9.20924 7.56585 9.05027 7.68306 8.93306C7.80027 8.81585 7.95924 8.75 8.125 8.75ZM1.875 11.875V13.125H18.125V11.875H1.875ZM1.875 14.375V15.625H18.125V14.375H1.875Z" fill="white"/>
</svg>
