<svg width="76" height="76" viewBox="0 0 76 76" fill="none" xmlns="http://www.w3.org/2000/svg">
<rect width="76" height="76" rx="5" fill="#6196D3"/>
<path d="M33.334 70.099C32.5713 70.099 31.904 69.9377 31.332 69.615C30.76 69.2923 30.32 68.8303 30.012 68.229C29.704 67.6277 29.55 66.9237 29.55 66.117C29.55 65.3103 29.704 64.61 30.012 64.016C30.32 63.4147 30.76 62.9527 31.332 62.63C31.904 62.3073 32.5713 62.146 33.334 62.146C34.2947 62.146 35.1233 62.41 35.82 62.938C35.93 63.026 36.007 63.114 36.051 63.202C36.095 63.29 36.117 63.4 36.117 63.532C36.117 63.7227 36.062 63.8877 35.952 64.027C35.8493 64.159 35.721 64.225 35.567 64.225C35.4643 64.225 35.3727 64.214 35.292 64.192C35.2187 64.1627 35.1343 64.115 35.039 64.049C34.7457 63.8583 34.4743 63.7227 34.225 63.642C33.9757 63.554 33.708 63.51 33.422 63.51C32.718 63.51 32.1863 63.73 31.827 64.17C31.475 64.6027 31.299 65.2517 31.299 66.117C31.299 67.8623 32.0067 68.735 33.422 68.735C33.6933 68.735 33.95 68.6947 34.192 68.614C34.434 68.526 34.7163 68.3867 35.039 68.196C35.149 68.13 35.2407 68.086 35.314 68.064C35.3873 68.0347 35.4717 68.02 35.567 68.02C35.721 68.02 35.8493 68.0897 35.952 68.229C36.062 68.361 36.117 68.5223 36.117 68.713C36.117 68.845 36.0913 68.9587 36.04 69.054C35.996 69.142 35.9227 69.2263 35.82 69.307C35.1233 69.835 34.2947 70.099 33.334 70.099ZM41.8671 66.282C42.0284 66.282 42.1641 66.337 42.2741 66.447C42.3841 66.5497 42.4391 66.6817 42.4391 66.843C42.4391 67.0043 42.3841 67.14 42.2741 67.25C42.1641 67.36 42.0284 67.415 41.8671 67.415H40.3271V68.966C40.3271 69.1273 40.2721 69.263 40.1621 69.373C40.0521 69.4757 39.9164 69.527 39.7551 69.527C39.5937 69.527 39.4581 69.4757 39.3481 69.373C39.2381 69.263 39.1831 69.1273 39.1831 68.966V67.415H37.6431C37.4817 67.415 37.3461 67.36 37.2361 67.25C37.1261 67.14 37.0711 67.0043 37.0711 66.843C37.0711 66.6817 37.1261 66.5497 37.2361 66.447C37.3461 66.337 37.4817 66.282 37.6431 66.282H39.1831V64.731C39.1831 64.5697 39.2381 64.434 39.3481 64.324C39.4581 64.214 39.5937 64.159 39.7551 64.159C39.9164 64.159 40.0521 64.214 40.1621 64.324C40.2721 64.434 40.3271 64.5697 40.3271 64.731V66.282H41.8671ZM48.4628 66.282C48.6241 66.282 48.7598 66.337 48.8698 66.447C48.9798 66.5497 49.0348 66.6817 49.0348 66.843C49.0348 67.0043 48.9798 67.14 48.8698 67.25C48.7598 67.36 48.6241 67.415 48.4628 67.415H46.9228V68.966C46.9228 69.1273 46.8678 69.263 46.7578 69.373C46.6478 69.4757 46.5121 69.527 46.3508 69.527C46.1894 69.527 46.0538 69.4757 45.9438 69.373C45.8338 69.263 45.7788 69.1273 45.7788 68.966V67.415H44.2388C44.0774 67.415 43.9418 67.36 43.8318 67.25C43.7218 67.14 43.6668 67.0043 43.6668 66.843C43.6668 66.6817 43.7218 66.5497 43.8318 66.447C43.9418 66.337 44.0774 66.282 44.2388 66.282H45.7788V64.731C45.7788 64.5697 45.8338 64.434 45.9438 64.324C46.0538 64.214 46.1894 64.159 46.3508 64.159C46.5121 64.159 46.6478 64.214 46.7578 64.324C46.8678 64.434 46.9228 64.5697 46.9228 64.731V66.282H48.4628Z" fill="white"/>
<g clip-path="url(#clip0)">
<path d="M56.9428 22.1794C56.9425 21.5421 56.8053 20.979 56.5279 20.4957C56.2553 20.0204 55.8472 19.6221 55.2997 19.3071C50.7808 16.7185 46.2575 14.1378 41.74 11.5465C40.5221 10.848 39.3413 10.8735 38.1324 11.582C36.3337 12.6359 27.3284 17.7615 24.6449 19.3056C23.5398 19.9412 23.002 20.9139 23.0017 22.1782C23 27.3841 23.0017 32.5898 23 37.7958C23.0003 38.4191 23.1316 38.9713 23.3968 39.4474C23.6695 39.937 24.0834 40.3463 24.6434 40.6684C27.327 42.2125 36.3336 47.3378 38.1319 48.3919C39.3412 49.1008 40.5221 49.1262 41.7404 48.4274C46.258 45.836 50.7816 43.2554 55.3012 40.6668C55.8613 40.3449 56.2751 39.9353 56.5478 39.446C56.8126 38.97 56.9442 38.4178 56.9445 37.7944C56.9445 37.7944 56.9445 27.3854 56.9428 22.1794Z" fill="white"/>
<path d="M40.0243 29.9351L23.397 39.4462C23.6696 39.9359 24.0835 40.3451 24.6436 40.6672C27.3272 42.2114 36.3337 47.3366 38.132 48.3907C39.3414 49.0997 40.5222 49.125 41.7405 48.4262C46.2581 45.8348 50.7817 43.2543 55.3013 40.6656C55.8614 40.3437 56.2752 39.9341 56.5479 39.4449L40.0243 29.9351Z" fill="white"/>
<path d="M35.0991 32.7524C36.0667 34.4305 37.8855 35.5623 39.972 35.5623C42.0714 35.5623 43.9006 34.4161 44.8632 32.7201L40.0239 29.9351L35.0991 32.7524Z" fill="white"/>
<path d="M56.943 22.1785C56.9427 21.5412 56.8055 20.978 56.5281 20.4947L40.0244 29.9353L56.548 39.4451C56.8128 38.9691 56.9445 38.4169 56.9447 37.7934C56.9447 37.7934 56.9447 27.3845 56.943 22.1785Z" fill="white"/>
<path d="M56.0344 30.615H54.7432V31.8981H53.4517V30.615H52.1606V29.3324H53.4517V28.0497H54.7432V29.3324H56.0344V30.615Z" fill="#6196D3"/>
<path d="M51.3227 30.615H50.0316V31.8981H48.7404V30.615H47.4492V29.3324H48.7404V28.0497H50.0316V29.3324H51.3227V30.615Z" fill="#6196D3"/>
<path d="M44.8634 32.7202C43.9008 34.4162 42.0715 35.5624 39.9722 35.5624C37.8857 35.5624 36.0668 34.4306 35.0993 32.7525C34.6132 31.9105 34.358 30.9566 34.359 29.9859C34.359 26.9062 36.8722 24.4095 39.9722 24.4095C42.0452 24.4095 43.8545 25.5272 44.8269 27.1882L49.7331 24.3814C47.783 21.0372 44.1422 18.7873 39.9722 18.7873C33.7464 18.7873 28.6997 23.8012 28.6997 29.9859C28.6997 32.015 29.243 33.9177 30.1927 35.559C32.1378 38.9209 35.789 41.1847 39.9722 41.1847C44.1631 41.1847 47.8199 38.9118 49.7623 35.54L44.8634 32.7202Z" fill="#6196D3"/>
</g>
<defs>
<clipPath id="clip0">
<rect width="34" height="38" fill="white" transform="translate(23 11)"/>
</clipPath>
</defs>
</svg>
