<svg width="76" height="76" viewBox="0 0 76 76" fill="none" xmlns="http://www.w3.org/2000/svg">
<rect width="76" height="76" rx="5" fill="#3C99DC"/>
<path d="M29.334 70.099C28.5713 70.099 27.904 69.9377 27.332 69.615C26.76 69.2923 26.32 68.8303 26.012 68.229C25.704 67.6277 25.55 66.9237 25.55 66.117C25.55 65.3103 25.704 64.61 26.012 64.016C26.32 63.4147 26.76 62.9527 27.332 62.63C27.904 62.3073 28.5713 62.146 29.334 62.146C30.2947 62.146 31.1233 62.41 31.82 62.938C31.93 63.026 32.007 63.114 32.051 63.202C32.095 63.29 32.117 63.4 32.117 63.532C32.117 63.7227 32.062 63.8877 31.952 64.027C31.8493 64.159 31.721 64.225 31.567 64.225C31.4643 64.225 31.3727 64.214 31.292 64.192C31.2187 64.1627 31.1343 64.115 31.039 64.049C30.7457 63.8583 30.4743 63.7227 30.225 63.642C29.9757 63.554 29.708 63.51 29.422 63.51C28.718 63.51 28.1863 63.73 27.827 64.17C27.475 64.6027 27.299 65.2517 27.299 66.117C27.299 67.8623 28.0067 68.735 29.422 68.735C29.6933 68.735 29.95 68.6947 30.192 68.614C30.434 68.526 30.7163 68.3867 31.039 68.196C31.149 68.13 31.2407 68.086 31.314 68.064C31.3873 68.0347 31.4717 68.02 31.567 68.02C31.721 68.02 31.8493 68.0897 31.952 68.229C32.062 68.361 32.117 68.5223 32.117 68.713C32.117 68.845 32.0913 68.9587 32.04 69.054C31.996 69.142 31.9227 69.2263 31.82 69.307C31.1233 69.835 30.2947 70.099 29.334 70.099ZM35.8579 70.099C35.2786 70.099 34.7396 70.033 34.2409 69.901C33.7423 69.7617 33.3353 69.5673 33.0199 69.318C32.9099 69.2373 32.8293 69.153 32.7779 69.065C32.7339 68.9697 32.7119 68.8523 32.7119 68.713C32.7119 68.5297 32.7669 68.3683 32.8769 68.229C32.9943 68.0897 33.1263 68.02 33.2729 68.02C33.3536 68.02 33.4306 68.0347 33.5039 68.064C33.5846 68.086 33.6799 68.13 33.7899 68.196C34.1053 68.394 34.4243 68.5407 34.7469 68.636C35.0696 68.724 35.4253 68.768 35.8139 68.768C36.2979 68.768 36.6683 68.6873 36.9249 68.526C37.1816 68.3647 37.3099 68.1337 37.3099 67.833C37.3099 67.6057 37.1889 67.4223 36.9469 67.283C36.7123 67.1437 36.2906 67.0117 35.6819 66.887C34.9999 66.7477 34.4536 66.579 34.0429 66.381C33.6396 66.183 33.3426 65.9373 33.1519 65.644C32.9686 65.3507 32.8769 64.995 32.8769 64.577C32.8769 64.115 33.0089 63.7007 33.2729 63.334C33.5443 62.96 33.9146 62.6703 34.3839 62.465C34.8606 62.2523 35.3959 62.146 35.9899 62.146C37.0313 62.146 37.8893 62.4063 38.5639 62.927C38.6739 63.015 38.7509 63.1067 38.7949 63.202C38.8463 63.29 38.8719 63.4 38.8719 63.532C38.8719 63.7153 38.8133 63.8767 38.6959 64.016C38.5859 64.1553 38.4576 64.225 38.3109 64.225C38.2303 64.225 38.1533 64.214 38.0799 64.192C38.0139 64.17 37.9186 64.1223 37.7939 64.049C37.4933 63.8583 37.2146 63.7153 36.9579 63.62C36.7086 63.5247 36.3896 63.477 36.0009 63.477C35.5536 63.477 35.2016 63.565 34.9449 63.741C34.6883 63.9097 34.5599 64.1443 34.5599 64.445C34.5599 64.621 34.6076 64.7677 34.7029 64.885C34.8056 64.995 34.9706 65.094 35.1979 65.182C35.4326 65.27 35.7626 65.3617 36.1879 65.457C37.1853 65.677 37.9003 65.9593 38.3329 66.304C38.7729 66.6487 38.9929 67.1217 38.9929 67.723C38.9929 68.1923 38.8609 68.6067 38.5969 68.966C38.3403 69.3253 37.9736 69.604 37.4969 69.802C37.0276 70 36.4813 70.099 35.8579 70.099ZM43.023 70.099C42.4437 70.099 41.9047 70.033 41.406 69.901C40.9073 69.7617 40.5003 69.5673 40.185 69.318C40.075 69.2373 39.9943 69.153 39.943 69.065C39.899 68.9697 39.877 68.8523 39.877 68.713C39.877 68.5297 39.932 68.3683 40.042 68.229C40.1593 68.0897 40.2913 68.02 40.438 68.02C40.5187 68.02 40.5957 68.0347 40.669 68.064C40.7497 68.086 40.845 68.13 40.955 68.196C41.2703 68.394 41.5893 68.5407 41.912 68.636C42.2347 68.724 42.5903 68.768 42.979 68.768C43.463 68.768 43.8333 68.6873 44.09 68.526C44.3467 68.3647 44.475 68.1337 44.475 67.833C44.475 67.6057 44.354 67.4223 44.112 67.283C43.8773 67.1437 43.4557 67.0117 42.847 66.887C42.165 66.7477 41.6187 66.579 41.208 66.381C40.8047 66.183 40.5077 65.9373 40.317 65.644C40.1337 65.3507 40.042 64.995 40.042 64.577C40.042 64.115 40.174 63.7007 40.438 63.334C40.7093 62.96 41.0797 62.6703 41.549 62.465C42.0257 62.2523 42.561 62.146 43.155 62.146C44.1963 62.146 45.0543 62.4063 45.729 62.927C45.839 63.015 45.916 63.1067 45.96 63.202C46.0113 63.29 46.037 63.4 46.037 63.532C46.037 63.7153 45.9783 63.8767 45.861 64.016C45.751 64.1553 45.6227 64.225 45.476 64.225C45.3953 64.225 45.3183 64.214 45.245 64.192C45.179 64.17 45.0837 64.1223 44.959 64.049C44.6583 63.8583 44.3797 63.7153 44.123 63.62C43.8737 63.5247 43.5547 63.477 43.166 63.477C42.7187 63.477 42.3667 63.565 42.11 63.741C41.8533 63.9097 41.725 64.1443 41.725 64.445C41.725 64.621 41.7727 64.7677 41.868 64.885C41.9707 64.995 42.1357 65.094 42.363 65.182C42.5977 65.27 42.9277 65.3617 43.353 65.457C44.3503 65.677 45.0653 65.9593 45.498 66.304C45.938 66.6487 46.158 67.1217 46.158 67.723C46.158 68.1923 46.026 68.6067 45.762 68.966C45.5053 69.3253 45.1387 69.604 44.662 69.802C44.1927 70 43.6463 70.099 43.023 70.099Z" fill="white"/>
<path d="M19.6768 14.4308L22.8308 47.9588L36.5 51.5692L50.1687 47.9588L53.3238 14.4308H19.6768ZM46.5488 25.2972L36.4878 29.5175L36.4634 29.5274H46.1937L45.0807 42.0833L36.5032 44.5403L36.4878 44.5357V44.5403L27.8637 42.0381L27.3072 35.7149H31.588L31.8662 38.9904L36.4486 40.1255L36.4878 40.1146V40.1198L41.2324 38.8089L41.5573 33.5319L36.4878 33.5169L27.0289 33.4857L26.7046 29.5279L36.4878 25.5302L37.0581 25.2977H26.3336L25.8232 21.248H46.9665L46.5488 25.2972Z" fill="white"/>
</svg>
