<svg width="76" height="76" viewBox="0 0 76 76" fill="none" xmlns="http://www.w3.org/2000/svg">
<rect width="76" height="76" rx="5" fill="#373737"/>
<rect width="46" height="47" transform="translate(16 14)" fill="#373737"/>
<path d="M21.2271 16.1364H55.7271V51.3864H21.2271V16.1364ZM52.9 42.9792C52.6489 41.3714 51.6235 40.0202 48.5836 38.759C47.5256 38.2518 46.3507 37.9013 45.9981 37.0866C45.8677 36.6009 45.8486 36.3385 45.9329 36.0506C46.1495 35.1028 47.2496 34.8189 48.1121 35.0813C48.6737 35.2575 49.1912 35.6981 49.5151 36.4051C51.0006 35.4122 51.0006 35.4122 52.0375 34.7523C51.6484 34.1374 51.4548 33.8691 51.1961 33.6047C50.2895 32.5707 49.082 32.0419 47.1212 32.087L46.1092 32.2182C45.1375 32.461 44.2098 32.9917 43.6501 33.6948C42.0114 35.5904 42.4848 38.8941 44.4686 40.263C46.4293 41.7611 49.3005 42.0901 49.6666 43.5001C50.0116 45.2196 48.4169 45.7699 46.8395 45.5721C45.6761 45.3057 45.0282 44.7124 44.3171 43.6098L41.6875 45.153C41.9884 45.856 42.3334 46.1654 42.8509 46.7823C45.3521 49.3595 51.6062 49.2283 52.7275 45.3057C52.7677 45.1745 53.0725 44.2717 52.8348 42.8833L52.9 42.9792ZM39.9874 32.3376H36.7559C36.7559 35.1831 36.7425 38.0129 36.7425 40.8642C36.7425 42.6737 36.8326 44.3344 36.5431 44.8455C36.0697 45.858 34.845 45.7287 34.2911 45.5486C33.7218 45.2626 33.4324 44.8651 33.097 44.2933C33.0069 44.1405 32.9398 44.0074 32.9149 44.0074L30.2929 45.6602C30.7318 46.5865 31.372 47.3816 32.1981 47.8868C33.4266 48.6369 35.0769 48.8797 36.8057 48.4841C37.9327 48.1512 38.9045 47.4677 39.4086 46.4102C40.1446 45.0453 39.9874 43.3689 39.9816 41.4968C39.997 38.479 39.9816 35.4592 39.9816 32.4199L39.9874 32.3376Z" fill="white"/>
<path d="M28.573 70C28.3163 70 28.1183 69.9303 27.979 69.791C27.8397 69.6517 27.77 69.4537 27.77 69.197V63.048C27.77 62.7913 27.8397 62.5933 27.979 62.454C28.1183 62.3147 28.3163 62.245 28.573 62.245H32.467C33.0097 62.245 33.281 62.465 33.281 62.905C33.281 63.3523 33.0097 63.576 32.467 63.576H29.442V65.391H32.247C32.7897 65.391 33.061 65.6147 33.061 66.062C33.061 66.502 32.7897 66.722 32.247 66.722H29.442V68.669H32.467C33.0097 68.669 33.281 68.8927 33.281 69.34C33.281 69.78 33.0097 70 32.467 70H28.573ZM36.9771 70.099C36.3978 70.099 35.8588 70.033 35.3601 69.901C34.8614 69.7617 34.4544 69.5673 34.1391 69.318C34.0291 69.2373 33.9484 69.153 33.8971 69.065C33.8531 68.9697 33.8311 68.8523 33.8311 68.713C33.8311 68.5297 33.8861 68.3683 33.9961 68.229C34.1134 68.0897 34.2454 68.02 34.3921 68.02C34.4728 68.02 34.5498 68.0347 34.6231 68.064C34.7038 68.086 34.7991 68.13 34.9091 68.196C35.2244 68.394 35.5434 68.5407 35.8661 68.636C36.1888 68.724 36.5444 68.768 36.9331 68.768C37.4171 68.768 37.7874 68.6873 38.0441 68.526C38.3008 68.3647 38.4291 68.1337 38.4291 67.833C38.4291 67.6057 38.3081 67.4223 38.0661 67.283C37.8314 67.1437 37.4098 67.0117 36.8011 66.887C36.1191 66.7477 35.5728 66.579 35.1621 66.381C34.7588 66.183 34.4618 65.9373 34.2711 65.644C34.0878 65.3507 33.9961 64.995 33.9961 64.577C33.9961 64.115 34.1281 63.7007 34.3921 63.334C34.6634 62.96 35.0338 62.6703 35.5031 62.465C35.9798 62.2523 36.5151 62.146 37.1091 62.146C38.1504 62.146 39.0084 62.4063 39.6831 62.927C39.7931 63.015 39.8701 63.1067 39.9141 63.202C39.9654 63.29 39.9911 63.4 39.9911 63.532C39.9911 63.7153 39.9324 63.8767 39.8151 64.016C39.7051 64.1553 39.5768 64.225 39.4301 64.225C39.3494 64.225 39.2724 64.214 39.1991 64.192C39.1331 64.17 39.0378 64.1223 38.9131 64.049C38.6124 63.8583 38.3338 63.7153 38.0771 63.62C37.8278 63.5247 37.5088 63.477 37.1201 63.477C36.6728 63.477 36.3208 63.565 36.0641 63.741C35.8074 63.9097 35.6791 64.1443 35.6791 64.445C35.6791 64.621 35.7268 64.7677 35.8221 64.885C35.9248 64.995 36.0898 65.094 36.3171 65.182C36.5518 65.27 36.8818 65.3617 37.3071 65.457C38.3044 65.677 39.0194 65.9593 39.4521 66.304C39.8921 66.6487 40.1121 67.1217 40.1121 67.723C40.1121 68.1923 39.9801 68.6067 39.7161 68.966C39.4594 69.3253 39.0928 69.604 38.6161 69.802C38.1468 70 37.6004 70.099 36.9771 70.099ZM44.4391 64.962C44.8938 64.962 45.2971 65.0683 45.6491 65.281C46.0085 65.4937 46.2871 65.7907 46.4851 66.172C46.6905 66.5533 46.7931 66.986 46.7931 67.47C46.7931 67.976 46.6795 68.4307 46.4521 68.834C46.2248 69.23 45.9095 69.5417 45.5061 69.769C45.1028 69.989 44.6481 70.099 44.1421 70.099C43.1375 70.099 42.3601 69.7653 41.8101 69.098C41.2601 68.4307 40.9851 67.4773 40.9851 66.238C40.9851 65.4093 41.1135 64.687 41.3701 64.071C41.6268 63.4477 41.9935 62.971 42.4701 62.641C42.9541 62.311 43.5151 62.146 44.1531 62.146C44.5711 62.146 44.9928 62.2157 45.4181 62.355C45.8435 62.4943 46.2065 62.6887 46.5071 62.938C46.6098 63.0187 46.6831 63.1067 46.7271 63.202C46.7785 63.29 46.8041 63.4 46.8041 63.532C46.8041 63.7227 46.7491 63.8877 46.6391 64.027C46.5365 64.159 46.4081 64.225 46.2541 64.225C46.1588 64.225 46.0745 64.214 46.0011 64.192C45.9351 64.1627 45.8435 64.115 45.7261 64.049C45.4328 63.873 45.1688 63.7373 44.9341 63.642C44.7068 63.5393 44.4721 63.488 44.2301 63.488C43.7755 63.488 43.4125 63.697 43.1411 64.115C42.8771 64.533 42.7268 65.1197 42.6901 65.875C42.8588 65.5963 43.0971 65.3763 43.4051 65.215C43.7131 65.0463 44.0578 64.962 44.4391 64.962ZM44.0431 68.768C44.3878 68.768 44.6628 68.6543 44.8681 68.427C45.0808 68.1997 45.1871 67.899 45.1871 67.525C45.1871 67.1583 45.0808 66.8613 44.8681 66.634C44.6628 66.4067 44.3878 66.293 44.0431 66.293C43.6985 66.293 43.4198 66.4067 43.2071 66.634C42.9945 66.8613 42.8881 67.1583 42.8881 67.525C42.8881 67.8917 42.9945 68.1923 43.2071 68.427C43.4198 68.6543 43.6985 68.768 44.0431 68.768Z" fill="white"/>
</svg>
