<svg width="76" height="76" viewBox="0 0 76 76" fill="none" xmlns="http://www.w3.org/2000/svg">
<rect width="76" height="76" rx="5" fill="#5277D4"/>
<path d="M13.628 70.066C13.364 70.066 13.155 69.989 13.001 69.835C12.847 69.681 12.77 69.472 12.77 69.208V63.048C12.77 62.7913 12.8397 62.5933 12.979 62.454C13.1183 62.3147 13.3163 62.245 13.573 62.245H16.334C17.1773 62.245 17.8337 62.4577 18.303 62.883C18.7723 63.3083 19.007 63.9023 19.007 64.665C19.007 65.4277 18.7723 66.0217 18.303 66.447C17.8337 66.8723 17.1773 67.085 16.334 67.085H14.486V69.208C14.486 69.472 14.409 69.681 14.255 69.835C14.101 69.989 13.892 70.066 13.628 70.066ZM16.114 65.787C16.972 65.787 17.401 65.4167 17.401 64.676C17.401 63.928 16.972 63.554 16.114 63.554H14.486V65.787H16.114ZM24.9467 62.465C25.108 62.2743 25.2987 62.179 25.5187 62.179C25.724 62.179 25.9073 62.2597 26.0687 62.421C26.2373 62.575 26.3217 62.7547 26.3217 62.96C26.3217 63.1433 26.252 63.3157 26.1127 63.477L23.7037 66.337V69.208C23.7037 69.4867 23.623 69.6993 23.4617 69.846C23.3003 69.9927 23.0987 70.066 22.8567 70.066C22.6 70.066 22.391 69.9927 22.2297 69.846C22.0683 69.6993 21.9877 69.4867 21.9877 69.208V66.337L19.6007 63.477C19.4613 63.3303 19.3917 63.158 19.3917 62.96C19.3917 62.7547 19.4687 62.575 19.6227 62.421C19.784 62.2597 19.9673 62.179 20.1727 62.179C20.3927 62.179 20.5833 62.2743 20.7447 62.465L22.8457 65.028L24.9467 62.465ZM29.9767 70.055C29.72 70.055 29.511 69.978 29.3497 69.824C29.1957 69.67 29.1187 69.4647 29.1187 69.208V63.642H27.3367C26.794 63.642 26.5227 63.4073 26.5227 62.938C26.5227 62.476 26.794 62.245 27.3367 62.245H32.6167C33.1593 62.245 33.4307 62.476 33.4307 62.938C33.4307 63.4073 33.1593 63.642 32.6167 63.642H30.8347V69.208C30.8347 69.4647 30.7577 69.67 30.6037 69.824C30.4497 69.978 30.2407 70.055 29.9767 70.055ZM40.2624 62.19C40.5191 62.19 40.7244 62.267 40.8784 62.421C41.0324 62.575 41.1094 62.7803 41.1094 63.037V69.208C41.1094 69.4647 41.0324 69.6737 40.8784 69.835C40.7244 69.989 40.5191 70.066 40.2624 70.066C40.0058 70.066 39.8004 69.989 39.6464 69.835C39.4998 69.681 39.4264 69.472 39.4264 69.208V66.744H35.8514V69.208C35.8514 69.4647 35.7744 69.6737 35.6204 69.835C35.4664 69.989 35.2648 70.066 35.0154 70.066C34.7588 70.066 34.5534 69.989 34.3994 69.835C34.2454 69.681 34.1684 69.472 34.1684 69.208V63.037C34.1684 62.7803 34.2454 62.575 34.3994 62.421C34.5534 62.267 34.7588 62.19 35.0154 62.19C35.2721 62.19 35.4738 62.267 35.6204 62.421C35.7744 62.575 35.8514 62.7803 35.8514 63.037V65.38H39.4264V63.037C39.4264 62.7803 39.4998 62.575 39.6464 62.421C39.8004 62.267 40.0058 62.19 40.2624 62.19ZM46.2188 70.099C45.4488 70.099 44.7778 69.9377 44.2058 69.615C43.6411 69.285 43.2048 68.823 42.8968 68.229C42.5888 67.6277 42.4348 66.9237 42.4348 66.117C42.4348 65.3103 42.5888 64.61 42.8968 64.016C43.2048 63.4147 43.6411 62.9527 44.2058 62.63C44.7778 62.3073 45.4488 62.146 46.2188 62.146C46.9888 62.146 47.6561 62.3073 48.2208 62.63C48.7928 62.9527 49.2328 63.4147 49.5408 64.016C49.8488 64.61 50.0028 65.3103 50.0028 66.117C50.0028 66.9237 49.8488 67.6277 49.5408 68.229C49.2328 68.823 48.7928 69.285 48.2208 69.615C47.6561 69.9377 46.9888 70.099 46.2188 70.099ZM46.2188 68.768C46.8641 68.768 47.3701 68.5407 47.7368 68.086C48.1108 67.6313 48.2978 66.975 48.2978 66.117C48.2978 65.259 48.1144 64.6063 47.7478 64.159C47.3811 63.7043 46.8714 63.477 46.2188 63.477C45.5661 63.477 45.0564 63.7043 44.6898 64.159C44.3304 64.6063 44.1508 65.259 44.1508 66.117C44.1508 66.975 44.3341 67.6313 44.7008 68.086C45.0674 68.5407 45.5734 68.768 46.2188 68.768ZM57.231 62.19C57.473 62.19 57.6673 62.2707 57.814 62.432C57.968 62.586 58.045 62.7877 58.045 63.037V69.208C58.045 69.4647 57.968 69.6737 57.814 69.835C57.6673 69.989 57.473 70.066 57.231 70.066C56.967 70.066 56.7543 69.9707 56.593 69.78L52.908 65.061V69.208C52.908 69.4647 52.8346 69.6737 52.688 69.835C52.5486 69.989 52.358 70.066 52.116 70.066C51.874 70.066 51.6796 69.989 51.533 69.835C51.3863 69.6737 51.313 69.4647 51.313 69.208V63.037C51.313 62.7877 51.3863 62.586 51.533 62.432C51.687 62.2707 51.885 62.19 52.127 62.19C52.3983 62.19 52.6073 62.2853 52.754 62.476L56.439 67.162V63.037C56.439 62.7877 56.5123 62.586 56.659 62.432C56.8056 62.2707 56.9963 62.19 57.231 62.19Z" fill="white"/>
<path d="M37.3439 12.0107C27.9736 12.0107 28.5587 16.2004 28.5587 16.2004L28.5691 20.541H37.5109V21.8442H25.0175C25.0175 21.8442 19.0215 21.1431 19.0215 30.8912C19.0215 40.6396 24.255 40.2939 24.255 40.2939H27.3783V35.7702C27.3783 35.7702 27.2099 30.3742 32.5282 30.3742H41.3969C41.3969 30.3742 46.3797 30.4572 46.3797 25.409V17.0621C46.3797 17.0621 47.1364 12.0107 37.3439 12.0107ZM32.4133 14.9297C32.6246 14.9295 32.8339 14.9722 33.0291 15.0555C33.2244 15.1388 33.4018 15.261 33.5512 15.415C33.7006 15.5691 33.8191 15.752 33.8999 15.9533C33.9807 16.1546 34.0221 16.3704 34.0219 16.5883C34.0221 16.8061 33.9807 17.0219 33.8999 17.2232C33.8191 17.4245 33.7006 17.6074 33.5512 17.7615C33.4018 17.9156 33.2244 18.0377 33.0291 18.121C32.8339 18.2043 32.6246 18.247 32.4133 18.2469C32.202 18.247 31.9927 18.2043 31.7975 18.121C31.6022 18.0377 31.4248 17.9156 31.2754 17.7615C31.126 17.6074 31.0075 17.4245 30.9267 17.2232C30.846 17.0219 30.8045 16.8061 30.8047 16.5883C30.8045 16.3704 30.846 16.1546 30.9267 15.9533C31.0075 15.752 31.126 15.5691 31.2754 15.415C31.4248 15.261 31.6022 15.1388 31.7975 15.0555C31.9927 14.9722 32.202 14.9295 32.4133 14.9297Z" fill="white"/>
<path d="M37.6096 49.8698C46.9798 49.8698 46.3948 45.6801 46.3948 45.6801L46.3843 41.3396H37.4423V40.0365H49.9358C49.9358 40.0365 55.9318 40.7376 55.9318 30.9892C55.9318 21.2409 50.6983 21.5866 50.6983 21.5866H47.575V26.1101C47.575 26.1101 47.7434 31.5061 42.4251 31.5061H33.5563C33.5563 31.5061 28.5736 31.4231 28.5736 36.4715V44.8185C28.5736 44.8185 27.817 49.8698 37.6094 49.8698H37.6096ZM42.5401 46.9511C42.3288 46.9513 42.1195 46.9085 41.9243 46.8253C41.729 46.742 41.5516 46.6198 41.4022 46.4658C41.2528 46.3117 41.1343 46.1288 41.0535 45.9275C40.9728 45.7261 40.9313 45.5104 40.9315 45.2925C40.9313 45.0746 40.9727 44.8589 41.0535 44.6575C41.1343 44.4562 41.2527 44.2733 41.4022 44.1192C41.5516 43.9651 41.729 43.8429 41.9242 43.7597C42.1195 43.6764 42.3288 43.6336 42.5401 43.6338C42.7514 43.6336 42.9607 43.6764 43.1559 43.7596C43.3512 43.8429 43.5286 43.9651 43.678 44.1191C43.8274 44.2732 43.9459 44.4561 44.0267 44.6574C44.1074 44.8587 44.1489 45.0745 44.1487 45.2924C44.1489 45.5102 44.1074 45.726 44.0267 45.9273C43.9459 46.1286 43.8274 46.3116 43.678 46.4656C43.5286 46.6197 43.3512 46.7418 43.1559 46.8251C42.9607 46.9084 42.7514 46.9512 42.5401 46.951V46.9511Z" fill="white"/>
</svg>
