<svg width="76" height="76" viewBox="0 0 76 76" fill="none" xmlns="http://www.w3.org/2000/svg">
<g filter="url(#filter0_i)">
<rect width="76" height="76" rx="5" fill="#338ACE"/>
</g>
<g filter="url(#filter1_i)">
<path d="M21.38 61.641C21.446 61.487 21.5413 61.3733 21.666 61.3C21.7907 61.2193 21.93 61.179 22.084 61.179C22.304 61.179 22.502 61.2523 22.678 61.399C22.854 61.5457 22.942 61.7253 22.942 61.938C22.942 62.048 22.9163 62.158 22.865 62.268L19.895 68.538C19.8143 68.7067 19.6933 68.8387 19.532 68.934C19.3707 69.022 19.1947 69.066 19.004 69.066C18.8133 69.066 18.6373 69.022 18.476 68.934C18.3147 68.8387 18.1937 68.7067 18.113 68.538L15.143 62.268C15.0917 62.1653 15.066 62.059 15.066 61.949C15.066 61.729 15.1577 61.5457 15.341 61.399C15.5243 61.2523 15.7297 61.179 15.957 61.179C16.111 61.179 16.2503 61.2193 16.375 61.3C16.507 61.3733 16.606 61.487 16.672 61.641L19.026 66.789L21.38 61.641ZM26.4058 69.099C25.8265 69.099 25.2875 69.033 24.7888 68.901C24.2901 68.7617 23.8831 68.5673 23.5678 68.318C23.4578 68.2373 23.3771 68.153 23.3258 68.065C23.2818 67.9697 23.2598 67.8523 23.2598 67.713C23.2598 67.5297 23.3148 67.3683 23.4248 67.229C23.5421 67.0897 23.6741 67.02 23.8208 67.02C23.9015 67.02 23.9785 67.0347 24.0518 67.064C24.1325 67.086 24.2278 67.13 24.3378 67.196C24.6531 67.394 24.9721 67.5407 25.2948 67.636C25.6175 67.724 25.9731 67.768 26.3618 67.768C26.8458 67.768 27.2161 67.6873 27.4728 67.526C27.7295 67.3647 27.8578 67.1337 27.8578 66.833C27.8578 66.6057 27.7368 66.4223 27.4948 66.283C27.2601 66.1437 26.8385 66.0117 26.2298 65.887C25.5478 65.7477 25.0015 65.579 24.5908 65.381C24.1875 65.183 23.8905 64.9373 23.6998 64.644C23.5165 64.3507 23.4248 63.995 23.4248 63.577C23.4248 63.115 23.5568 62.7007 23.8208 62.334C24.0921 61.96 24.4625 61.6703 24.9318 61.465C25.4085 61.2523 25.9438 61.146 26.5378 61.146C27.5791 61.146 28.4371 61.4063 29.1118 61.927C29.2218 62.015 29.2988 62.1067 29.3428 62.202C29.3941 62.29 29.4198 62.4 29.4198 62.532C29.4198 62.7153 29.3611 62.8767 29.2438 63.016C29.1338 63.1553 29.0055 63.225 28.8588 63.225C28.7781 63.225 28.7011 63.214 28.6278 63.192C28.5618 63.17 28.4665 63.1223 28.3418 63.049C28.0411 62.8583 27.7625 62.7153 27.5058 62.62C27.2565 62.5247 26.9375 62.477 26.5488 62.477C26.1015 62.477 25.7495 62.565 25.4928 62.741C25.2361 62.9097 25.1078 63.1443 25.1078 63.445C25.1078 63.621 25.1555 63.7677 25.2508 63.885C25.3535 63.995 25.5185 64.094 25.7458 64.182C25.9805 64.27 26.3105 64.3617 26.7358 64.457C27.7331 64.677 28.4481 64.9593 28.8808 65.304C29.3208 65.6487 29.5408 66.1217 29.5408 66.723C29.5408 67.1923 29.4088 67.6067 29.1448 67.966C28.8881 68.3253 28.5215 68.604 28.0448 68.802C27.5755 69 27.0291 69.099 26.4058 69.099ZM34.3408 69.099C33.5782 69.099 32.9108 68.9377 32.3388 68.615C31.7668 68.2923 31.3268 67.8303 31.0188 67.229C30.7108 66.6277 30.5568 65.9237 30.5568 65.117C30.5568 64.3103 30.7108 63.61 31.0188 63.016C31.3268 62.4147 31.7668 61.9527 32.3388 61.63C32.9108 61.3073 33.5782 61.146 34.3408 61.146C35.3015 61.146 36.1302 61.41 36.8268 61.938C36.9368 62.026 37.0138 62.114 37.0578 62.202C37.1018 62.29 37.1238 62.4 37.1238 62.532C37.1238 62.7227 37.0688 62.8877 36.9588 63.027C36.8562 63.159 36.7278 63.225 36.5738 63.225C36.4712 63.225 36.3795 63.214 36.2988 63.192C36.2255 63.1627 36.1412 63.115 36.0458 63.049C35.7525 62.8583 35.4812 62.7227 35.2318 62.642C34.9825 62.554 34.7148 62.51 34.4288 62.51C33.7248 62.51 33.1932 62.73 32.8338 63.17C32.4818 63.6027 32.3058 64.2517 32.3058 65.117C32.3058 66.8623 33.0135 67.735 34.4288 67.735C34.7002 67.735 34.9568 67.6947 35.1988 67.614C35.4408 67.526 35.7232 67.3867 36.0458 67.196C36.1558 67.13 36.2475 67.086 36.3208 67.064C36.3942 67.0347 36.4785 67.02 36.5738 67.02C36.7278 67.02 36.8562 67.0897 36.9588 67.229C37.0688 67.361 37.1238 67.5223 37.1238 67.713C37.1238 67.845 37.0982 67.9587 37.0468 68.054C37.0028 68.142 36.9295 68.2263 36.8268 68.307C36.1302 68.835 35.3015 69.099 34.3408 69.099ZM41.6348 69.099C40.8648 69.099 40.1938 68.9377 39.6218 68.615C39.0571 68.285 38.6208 67.823 38.3128 67.229C38.0048 66.6277 37.8508 65.9237 37.8508 65.117C37.8508 64.3103 38.0048 63.61 38.3128 63.016C38.6208 62.4147 39.0571 61.9527 39.6218 61.63C40.1938 61.3073 40.8648 61.146 41.6348 61.146C42.4048 61.146 43.0721 61.3073 43.6368 61.63C44.2088 61.9527 44.6488 62.4147 44.9568 63.016C45.2648 63.61 45.4188 64.3103 45.4188 65.117C45.4188 65.9237 45.2648 66.6277 44.9568 67.229C44.6488 67.823 44.2088 68.285 43.6368 68.615C43.0721 68.9377 42.4048 69.099 41.6348 69.099ZM41.6348 67.768C42.2801 67.768 42.7861 67.5407 43.1528 67.086C43.5268 66.6313 43.7138 65.975 43.7138 65.117C43.7138 64.259 43.5304 63.6063 43.1638 63.159C42.7971 62.7043 42.2874 62.477 41.6348 62.477C40.9821 62.477 40.4724 62.7043 40.1058 63.159C39.7464 63.6063 39.5668 64.259 39.5668 65.117C39.5668 65.975 39.7501 66.6313 40.1168 67.086C40.4834 67.5407 40.9894 67.768 41.6348 67.768ZM47.532 69C47.2753 69 47.0773 68.9303 46.938 68.791C46.7987 68.6517 46.729 68.4537 46.729 68.197V62.048C46.729 61.7913 46.7987 61.5933 46.938 61.454C47.0773 61.3147 47.2753 61.245 47.532 61.245H49.743C50.5863 61.245 51.3123 61.399 51.921 61.707C52.5297 62.015 52.9953 62.4587 53.318 63.038C53.6407 63.6173 53.802 64.3103 53.802 65.117C53.802 65.9237 53.6407 66.6203 53.318 67.207C53.0027 67.7863 52.5407 68.23 51.932 68.538C51.3233 68.846 50.5937 69 49.743 69H47.532ZM49.622 67.614C51.272 67.614 52.097 66.7817 52.097 65.117C52.097 63.4597 51.272 62.631 49.622 62.631H48.445V67.614H49.622ZM55.9216 69C55.665 69 55.467 68.9303 55.3276 68.791C55.1883 68.6517 55.1186 68.4537 55.1186 68.197V62.048C55.1186 61.7913 55.1883 61.5933 55.3276 61.454C55.467 61.3147 55.665 61.245 55.9216 61.245H59.8156C60.3583 61.245 60.6296 61.465 60.6296 61.905C60.6296 62.3523 60.3583 62.576 59.8156 62.576H56.7906V64.391H59.5956C60.1383 64.391 60.4096 64.6147 60.4096 65.062C60.4096 65.502 60.1383 65.722 59.5956 65.722H56.7906V67.669H59.8156C60.3583 67.669 60.6296 67.8927 60.6296 68.34C60.6296 68.78 60.3583 69 59.8156 69H55.9216Z" fill="white"/>
</g>
<g filter="url(#filter2_i)">
<mask id="mask0" mask-type="alpha" maskUnits="userSpaceOnUse" x="20" y="14" width="31" height="35">
<path d="M41.8971 48.8085C42.1428 48.9175 42.4056 48.9678 42.6692 48.9563C42.9327 48.9448 43.1913 48.8717 43.429 48.7415L49.7865 45.2605C50.1139 45.0811 50.3902 44.8002 50.5835 44.45C50.7769 44.0999 50.8794 43.6948 50.8794 43.2812V19.6774C50.8794 19.2639 50.7769 18.8588 50.5835 18.5087C50.3902 18.1586 50.1139 17.8777 49.7865 17.6983L43.4291 14.2172C43.0698 14.0205 42.6658 13.9557 42.2728 14.0318C41.8798 14.108 41.5173 14.3212 41.2355 14.6421L29.0647 27.2773L23.7632 22.6981C23.5241 22.4915 23.2289 22.3867 22.929 22.4019C22.6291 22.4171 22.3433 22.5512 22.1212 22.7811L20.4209 24.5412C19.8602 25.1215 19.8596 26.1252 20.4195 26.7064L25.017 31.4793L20.4195 36.2521C19.8596 36.8335 19.8602 37.8371 20.4209 38.4175L22.1212 40.1774C22.3433 40.4073 22.629 40.5415 22.929 40.5567C23.2289 40.5719 23.5241 40.4672 23.7632 40.2606L29.0647 35.6813L41.2355 48.3164C41.4236 48.5309 41.649 48.6985 41.8971 48.8085ZM43.1643 23.5025L33.9294 31.4793L43.1643 39.456V23.5025Z" fill="white"/>
</mask>
<g mask="url(#mask0)">
<path d="M49.8054 17.7039L43.4429 14.218C43.0835 14.0211 42.6793 13.9562 42.2862 14.0322C41.893 14.1083 41.5303 14.3215 41.2483 14.6424L20.4197 36.2524C19.8595 36.8337 19.8602 37.8373 20.4211 38.4177L22.1225 40.1776C22.3448 40.4076 22.6307 40.5418 22.9308 40.557C23.231 40.5722 23.5263 40.4674 23.7656 40.2608L48.848 18.6083C49.6895 17.8819 50.8981 18.5648 50.8981 19.7667V19.6826C50.8981 19.2692 50.7956 18.8642 50.6023 18.5141C50.4089 18.1641 50.1327 17.8832 49.8054 17.7039Z" fill="white"/>
<path d="M49.8054 45.2543L43.4429 48.7402C43.0835 48.937 42.6793 49.0019 42.2862 48.9259C41.893 48.8498 41.5303 48.6366 41.2483 48.3158L20.4197 26.7058C19.8595 26.1246 19.8602 25.1209 20.4211 24.5406L22.1225 22.7805C22.3448 22.5506 22.6308 22.4164 22.9309 22.4012C23.231 22.386 23.5263 22.4908 23.7656 22.6974L48.848 44.3499C49.6895 45.0762 50.8981 44.3933 50.8981 43.1913V43.2755C50.8981 43.6889 50.7955 44.094 50.6022 44.444C50.4089 44.794 50.1327 45.0749 49.8054 45.2543Z" fill="white"/>
<path d="M43.4229 48.7429C43.0634 48.9396 42.6592 49.0044 42.266 48.9283C41.8728 48.8522 41.5101 48.639 41.228 48.3181C41.9402 49.1283 43.158 48.5544 43.158 47.4082V15.5534C43.158 14.4072 41.9402 13.8333 41.228 14.6437C41.5101 14.3228 41.8728 14.1095 42.266 14.0334C42.6591 13.9572 43.0634 14.022 43.4229 14.2187L49.7843 17.6998C50.1118 17.8791 50.3882 18.1599 50.5817 18.5101C50.7751 18.8602 50.8778 19.2654 50.8777 19.679V43.2829C50.8777 44.1269 50.4527 44.8963 49.7843 45.2621L43.4229 48.743V48.7429Z" fill="white"/>
<path d="M41.8971 48.8079C42.1428 48.9169 42.4056 48.9672 42.6692 48.9557C42.9327 48.9442 43.1913 48.8711 43.429 48.7409L49.7864 45.2598C50.1138 45.0805 50.3901 44.7996 50.5835 44.4494C50.7769 44.0993 50.8794 43.6942 50.8794 43.2806V19.6769C50.8794 19.2633 50.7769 18.8582 50.5835 18.5081C50.3902 18.158 50.1139 17.8771 49.7865 17.6977L43.4288 14.2164C43.0696 14.0198 42.6656 13.955 42.2726 14.0312C41.8796 14.1073 41.5171 14.3205 41.2353 14.6414L29.0647 27.2767L23.7632 22.6975C23.5241 22.4909 23.2289 22.3861 22.929 22.4013C22.6291 22.4165 22.3433 22.5507 22.1212 22.7806L20.4209 24.5406C19.8602 25.1209 19.8596 26.1246 20.4195 26.7058L25.017 31.4787L20.4195 36.2516C19.8596 36.8329 19.8602 37.8365 20.4209 38.4169L22.1212 40.1768C22.3433 40.4067 22.629 40.5409 22.929 40.5561C23.2289 40.5713 23.5241 40.4666 23.7632 40.26L29.0647 35.6807L41.2353 48.3158C41.4236 48.5303 41.6489 48.6979 41.8971 48.8079ZM43.1643 23.5018L33.9294 31.4787L43.1643 39.4554V23.5018Z" fill="white" fill-opacity="0.25"/>
</g>
</g>
<defs>
<filter id="filter0_i" x="0" y="0" width="76" height="80" filterUnits="userSpaceOnUse" color-interpolation-filters="sRGB">
<feFlood flood-opacity="0" result="BackgroundImageFix"/>
<feBlend mode="normal" in="SourceGraphic" in2="BackgroundImageFix" result="shape"/>
<feColorMatrix in="SourceAlpha" type="matrix" values="0 0 0 0 0 0 0 0 0 0 0 0 0 0 0 0 0 0 127 0" result="hardAlpha"/>
<feOffset dy="4"/>
<feGaussianBlur stdDeviation="2"/>
<feComposite in2="hardAlpha" operator="arithmetic" k2="-1" k3="1"/>
<feColorMatrix type="matrix" values="0 0 0 0 0 0 0 0 0 0 0 0 0 0 0 0 0 0 0.05 0"/>
<feBlend mode="normal" in2="shape" result="effect1_innerShadow"/>
</filter>
<filter id="filter1_i" x="15.0659" y="61.146" width="45.5636" height="11.953" filterUnits="userSpaceOnUse" color-interpolation-filters="sRGB">
<feFlood flood-opacity="0" result="BackgroundImageFix"/>
<feBlend mode="normal" in="SourceGraphic" in2="BackgroundImageFix" result="shape"/>
<feColorMatrix in="SourceAlpha" type="matrix" values="0 0 0 0 0 0 0 0 0 0 0 0 0 0 0 0 0 0 127 0" result="hardAlpha"/>
<feOffset dy="4"/>
<feGaussianBlur stdDeviation="2"/>
<feComposite in2="hardAlpha" operator="arithmetic" k2="-1" k3="1"/>
<feColorMatrix type="matrix" values="0 0 0 0 0 0 0 0 0 0 0 0 0 0 0 0 0 0 0.05 0"/>
<feBlend mode="normal" in2="shape" result="effect1_innerShadow"/>
</filter>
<filter id="filter2_i" x="20" y="14" width="31" height="39" filterUnits="userSpaceOnUse" color-interpolation-filters="sRGB">
<feFlood flood-opacity="0" result="BackgroundImageFix"/>
<feBlend mode="normal" in="SourceGraphic" in2="BackgroundImageFix" result="shape"/>
<feColorMatrix in="SourceAlpha" type="matrix" values="0 0 0 0 0 0 0 0 0 0 0 0 0 0 0 0 0 0 127 0" result="hardAlpha"/>
<feOffset dy="4"/>
<feGaussianBlur stdDeviation="2"/>
<feComposite in2="hardAlpha" operator="arithmetic" k2="-1" k3="1"/>
<feColorMatrix type="matrix" values="0 0 0 0 0 0 0 0 0 0 0 0 0 0 0 0 0 0 0.05 0"/>
<feBlend mode="normal" in2="shape" result="effect1_innerShadow"/>
</filter>
</defs>
</svg>
