<svg width="16" height="16" viewBox="0 0 16 16" fill="none" xmlns="http://www.w3.org/2000/svg">
<path d="M16 12C16 12.4715 15.8127 12.9237 15.4793 13.2571C15.1459 13.5905 14.6937 13.7778 14.2222 13.7778H1.77778C1.30628 13.7778 0.854097 13.5905 0.520699 13.2571C0.187301 12.9237 0 12.4715 0 12V4.00001C0 3.52851 0.187301 3.07633 0.520699 2.74293C0.854097 2.40953 1.30628 2.22223 1.77778 2.22223H14.2222C14.6937 2.22223 15.1459 2.40953 15.4793 2.74293C15.8127 3.07633 16 3.52851 16 4.00001V12Z" fill="#009B3A"/>
<path d="M14.5458 7.99999L8 12.944L1.45422 7.99999L8 3.05554L14.5458 7.99999Z" fill="#FEDF01"/>
<path d="M7.98936 10.8365C9.57454 10.8365 10.8596 9.55141 10.8596 7.96623C10.8596 6.38105 9.57454 5.09601 7.98936 5.09601C6.40418 5.09601 5.11914 6.38105 5.11914 7.96623C5.11914 9.55141 6.40418 10.8365 7.98936 10.8365Z" fill="#002776"/>
<path d="M5.45644 6.61644C5.30737 6.89736 5.20642 7.20127 5.15778 7.51555C6.93333 7.38666 9.34311 8.356 10.3773 9.55777C10.556 9.28933 10.6884 8.98888 10.7698 8.66711C9.49333 7.41911 7.25111 6.60933 5.45644 6.61644V6.61644Z" fill="#CBE9D4"/>
<path d="M5.33331 8.10358H5.77776V8.54802H5.33331V8.10358ZM5.77776 8.99247H6.2222V9.43691H5.77776V8.99247Z" fill="#88C9F9"/>
<path d="M6.66669 8.10355H7.11113V8.54799H6.66669V8.10355ZM7.55558 8.54799H8.00002V8.99244H7.55558V8.54799ZM9.33335 9.43688H9.7778V9.88133H9.33335V9.43688ZM8.00002 9.88133H8.44446V10.3258H8.00002V9.88133ZM9.33335 7.21466H9.7778V7.65911H9.33335V7.21466Z" fill="#55ACEE"/>
<path d="M8.44446 8.99243H8.8889V9.43688H8.44446V8.99243Z" fill="#3B88C3"/>
</svg>
