<svg width="18" height="17" viewBox="0 0 18 17" fill="none" xmlns="http://www.w3.org/2000/svg">
<g clip-path="url(#clip0)">
<path d="M3.51953 9.99414V13H1.76172V4.46875H5.08984C5.73047 4.46875 6.29297 4.58594 6.77734 4.82031C7.26562 5.05469 7.64062 5.38867 7.90234 5.82227C8.16406 6.25195 8.29492 6.74219 8.29492 7.29297C8.29492 8.12891 8.00781 8.78906 7.43359 9.27344C6.86328 9.75391 6.07227 9.99414 5.06055 9.99414H3.51953ZM3.51953 8.57031H5.08984C5.55469 8.57031 5.9082 8.46094 6.15039 8.24219C6.39648 8.02344 6.51953 7.71094 6.51953 7.30469C6.51953 6.88672 6.39648 6.54883 6.15039 6.29102C5.9043 6.0332 5.56445 5.90039 5.13086 5.89258H3.51953V8.57031ZM15.9297 5.89258H13.3164V13H11.5586V5.89258H8.98047V4.46875H15.9297V5.89258Z" fill="#292828"/>
</g>
<defs>
<clipPath id="clip0">
<rect width="18" height="17" rx="8.5" fill="white"/>
</clipPath>
</defs>
</svg>
