<svg width="20" height="20" viewBox="0 0 20 20" fill="none" xmlns="http://www.w3.org/2000/svg">
<path d="M10 5.00002C10.221 5.00002 10.433 4.91222 10.5893 4.75594C10.7456 4.59966 10.8334 4.3877 10.8334 4.16669V2.50002C10.8334 2.27901 10.7456 2.06704 10.5893 1.91076C10.433 1.75448 10.221 1.66669 10 1.66669C9.77901 1.66669 9.56705 1.75448 9.41077 1.91076C9.25449 2.06704 9.16669 2.27901 9.16669 2.50002V4.16669C9.16669 4.3877 9.25449 4.59966 9.41077 4.75594C9.56705 4.91222 9.77901 5.00002 10 5.00002ZM17.5 9.16669H15.8334C15.6123 9.16669 15.4004 9.25449 15.2441 9.41077C15.0878 9.56705 15 9.77901 15 10C15 10.221 15.0878 10.433 15.2441 10.5893C15.4004 10.7456 15.6123 10.8334 15.8334 10.8334H17.5C17.721 10.8334 17.933 10.7456 18.0893 10.5893C18.2456 10.433 18.3334 10.221 18.3334 10C18.3334 9.77901 18.2456 9.56705 18.0893 9.41077C17.933 9.25449 17.721 9.16669 17.5 9.16669ZM5.00002 10C5.00002 9.77901 4.91222 9.56705 4.75594 9.41077C4.59966 9.25449 4.3877 9.16669 4.16669 9.16669H2.50002C2.27901 9.16669 2.06704 9.25449 1.91076 9.41077C1.75448 9.56705 1.66669 9.77901 1.66669 10C1.66669 10.221 1.75448 10.433 1.91076 10.5893C2.06704 10.7456 2.27901 10.8334 2.50002 10.8334H4.16669C4.3877 10.8334 4.59966 10.7456 4.75594 10.5893C4.91222 10.433 5.00002 10.221 5.00002 10ZM5.18335 4.16669C5.02091 4.01308 4.8041 3.9303 4.58062 3.93655C4.35714 3.9428 4.14529 4.03758 3.99169 4.20002C3.83808 4.36247 3.7553 4.57928 3.76155 4.80276C3.7678 5.02624 3.86258 5.23808 4.02502 5.39169L5.22502 6.55002C5.30555 6.62778 5.40092 6.68852 5.50544 6.7286C5.60996 6.76869 5.72148 6.78731 5.83335 6.78335C5.94561 6.78293 6.05662 6.75982 6.15972 6.71543C6.26283 6.67104 6.3559 6.60627 6.43335 6.52502C6.58856 6.36889 6.67568 6.15768 6.67568 5.93752C6.67568 5.71737 6.58856 5.50616 6.43335 5.35002L5.18335 4.16669ZM14.1667 6.78335C14.3812 6.7825 14.5872 6.69892 14.7417 6.55002L15.9417 5.39169C16.0881 5.23873 16.1708 5.03579 16.1729 4.82408C16.1751 4.61237 16.0966 4.40777 15.9534 4.25183C15.8102 4.09589 15.613 4.00031 15.4019 3.98449C15.1908 3.96868 14.9815 4.03382 14.8167 4.16669L13.6167 5.35002C13.4615 5.50616 13.3744 5.71737 13.3744 5.93752C13.3744 6.15768 13.4615 6.36889 13.6167 6.52502C13.761 6.67729 13.9574 6.76954 14.1667 6.78335ZM10 15C9.77901 15 9.56705 15.0878 9.41077 15.2441C9.25449 15.4004 9.16669 15.6123 9.16669 15.8334V17.5C9.16669 17.721 9.25449 17.933 9.41077 18.0893C9.56705 18.2456 9.77901 18.3334 10 18.3334C10.221 18.3334 10.433 18.2456 10.5893 18.0893C10.7456 17.933 10.8334 17.721 10.8334 17.5V15.8334C10.8334 15.6123 10.7456 15.4004 10.5893 15.2441C10.433 15.0878 10.221 15 10 15ZM14.775 13.45C14.6159 13.2964 14.4023 13.2123 14.1811 13.2162C13.96 13.2201 13.7495 13.3117 13.5959 13.4709C13.4423 13.63 13.3582 13.8436 13.3621 14.0648C13.366 14.2859 13.4576 14.4964 13.6167 14.65L14.8167 15.8334C14.9712 15.9823 15.1771 16.0658 15.3917 16.0667C15.5033 16.0673 15.614 16.0455 15.7171 16.0026C15.8201 15.9597 15.9135 15.8964 15.9917 15.8167C16.0698 15.7392 16.1318 15.6471 16.1741 15.5455C16.2164 15.444 16.2382 15.335 16.2382 15.225C16.2382 15.115 16.2164 15.0061 16.1741 14.9045C16.1318 14.803 16.0698 14.7108 15.9917 14.6334L14.775 13.45ZM5.22502 13.45L4.02502 14.6084C3.94691 14.6858 3.88492 14.778 3.84261 14.8795C3.8003 14.9811 3.77852 15.09 3.77852 15.2C3.77852 15.31 3.8003 15.419 3.84261 15.5205C3.88492 15.6221 3.94691 15.7142 4.02502 15.7917C4.10318 15.8714 4.19657 15.9347 4.29964 15.9776C4.40271 16.0205 4.51336 16.0423 4.62502 16.0417C4.83045 16.0434 5.02928 15.9692 5.18335 15.8334L6.38335 14.675C6.54248 14.5214 6.63408 14.3109 6.63798 14.0898C6.64189 13.8686 6.55779 13.655 6.40419 13.4959C6.25058 13.3367 6.04006 13.2451 5.81892 13.2412C5.59778 13.2373 5.38415 13.3214 5.22502 13.475V13.45ZM10 6.66669C9.34075 6.66669 8.69628 6.86218 8.14812 7.22846C7.59996 7.59473 7.17271 8.11532 6.92042 8.72441C6.66813 9.3335 6.60212 10.0037 6.73074 10.6503C6.85935 11.2969 7.17682 11.8909 7.643 12.357C8.10917 12.8232 8.70312 13.1407 9.34972 13.2693C9.99632 13.3979 10.6665 13.3319 11.2756 13.0796C11.8847 12.8273 12.4053 12.4001 12.7716 11.8519C13.1379 11.3038 13.3334 10.6593 13.3334 10C13.3334 9.11597 12.9822 8.26812 12.357 7.643C11.7319 7.01788 10.8841 6.66669 10 6.66669Z" fill="#292828"/>
</svg>
