<svg width="203" height="39" viewBox="0 0 203 39" fill="none" xmlns="http://www.w3.org/2000/svg">
<path fill-rule="evenodd" clip-rule="evenodd" d="M4.19978 36.2851C8.23839 25.9747 12.8528 14.1946 30.2102 10.2629C30.2102 10.2629 10.0701 10.2629 3.52455 29.25C3.52455 29.25 0 25.6578 0 21.5528C0 17.4472 4.028 8.72358 14.0981 6.67075C16.9619 6.08741 20.1514 5.62847 23.296 5.17525C31.2093 4.03584 38.8389 2.9377 40.2803 0C40.2803 0 34.2382 34.895 12.0841 34.895C11.359 34.895 10.3521 34.6277 9.38533 34.2793L7.47197 39L3.66556 37.6454C3.8432 37.1953 4.02085 36.7415 4.19978 36.2851ZM52.4423 34.9749C53.1352 35.5298 54.2717 35.8071 55.8518 35.8071C56.008 35.8071 56.2612 35.7982 56.6113 35.7804C56.8822 35.7672 57.2112 35.748 57.5982 35.724C57.4318 34.7534 57.3487 33.3944 57.3487 31.6475C57.3487 27.7367 57.7368 22.8693 58.5129 17.0453C59.3167 11.1941 59.7187 7.74097 59.7187 6.68725V6.6041C62.0195 5.63355 64.0985 5.49453 65.9557 6.1877C68.1455 7.04781 69.2405 8.82261 69.2405 11.5127C69.2405 13.3435 68.603 15.0903 67.3278 16.7547C65.4706 19.0843 62.9758 20.2491 59.8435 20.2491H59.5108L59.6356 21.9959C60.384 22.107 61.174 22.1623 62.0056 22.1623C63.9736 22.1623 65.7617 21.8156 67.3694 21.1224C69.0049 20.4292 70.3353 19.5279 71.361 18.4184C73.4678 16.0888 74.5212 13.4818 74.5212 10.5974C74.5212 8.26782 73.7726 6.31275 72.2758 4.73218C70.8066 3.12368 68.7831 2.31943 66.2051 2.31943C63.655 2.31943 61.3125 2.90151 59.1781 4.06631C58.2911 2.06934 56.4339 0.960401 53.6065 0.738232C53.9946 1.59834 54.1886 3.44233 54.1886 6.27149C54.1886 9.07208 53.7174 13.7731 52.7749 20.3735C51.8602 26.9464 51.4029 30.8845 51.4029 32.1877C51.4029 33.4915 51.7493 34.4207 52.4423 34.9749ZM84.0883 17.9195C85.502 15.4787 87.1097 14.2581 88.9115 14.2581C91.0735 14.2581 92.1547 16.4772 92.1547 20.9143C92.1547 23.9377 91.5726 26.669 90.4084 29.1097C89.2442 31.5224 87.7335 32.7285 85.8761 32.7285C83.2706 32.7285 81.9677 30.2054 81.9677 25.1577C81.9677 22.7449 82.6746 20.3321 84.0883 17.9195ZM95.7306 13.676C94.5665 12.0396 93.1526 11.2214 91.4895 11.2214C89.8263 11.2214 88.1215 11.7622 86.3752 12.8438C85.4604 13.4265 84.5735 14.2861 83.7141 15.4229C82.8825 16.5604 82.1756 17.9054 81.5935 19.4581C82.1479 15.9917 83.8249 13.2876 86.6246 11.3464C86.6246 11.1522 86.486 10.9719 86.2088 10.8056C85.9594 10.6114 85.6822 10.5143 85.3772 10.5143C82.5498 11.2074 80.2767 12.8997 78.5582 15.5899C76.8397 18.252 75.9802 21.344 75.9802 24.8663C75.9802 28.3607 76.8673 31.0509 78.6412 32.9367C80.4432 34.7946 82.5498 35.724 84.9614 35.724C86.6801 35.724 88.2601 35.4054 89.7015 34.7673C92.2518 33.6578 94.2198 31.6475 95.6058 28.7352C96.8531 26.1561 97.4769 23.3269 97.4769 20.2491C97.4769 17.5031 96.8948 15.3124 95.7306 13.676ZM107.755 24.4087C109.03 24.7139 110.333 24.8663 111.663 24.8663C114.297 24.8663 116.514 24.2284 118.316 22.9525C120.146 21.6772 121.06 19.7356 121.06 17.1285C121.06 15.3265 120.492 13.8702 119.356 12.7607C118.219 11.6518 116.431 11.097 113.992 11.097C111.58 11.097 109.376 11.8454 107.381 13.3435C105.385 14.8129 103.93 16.6296 103.015 18.7929C102.1 20.9282 101.643 23.1886 101.643 25.5735C101.643 28.7631 102.516 31.259 104.262 33.0617C106.009 34.8366 108.046 35.724 110.374 35.724C114.227 35.724 117.374 33.852 119.813 30.1083C119.813 29.3039 119.314 28.7904 118.316 28.5689C117.512 29.8447 116.57 30.8426 115.489 31.5637C114.408 32.2848 113.271 32.6453 112.079 32.6453C110.887 32.6453 109.862 32.0633 109.002 30.8985C108.143 29.7337 107.713 28.0002 107.713 25.6985C107.713 25.1157 107.727 24.6861 107.755 24.4087ZM109.834 16.2969C110.804 14.5495 111.996 13.676 113.41 13.676C114.13 13.676 114.671 13.9395 115.031 14.4663C115.254 14.7525 115.412 15.0751 115.507 15.4344C115.578 15.7015 115.614 15.9891 115.614 16.2969C115.614 18.0439 115.031 19.5419 113.867 20.7899C112.731 22.0377 110.956 22.6617 108.545 22.6617H107.921C108.226 20.1659 108.864 18.0439 109.834 16.2969ZM132.393 27.3209C132.643 25.4071 132.99 23.2166 133.433 20.748C133.877 18.2799 134.168 16.5464 134.306 15.548C134.888 15.5758 135.734 15.5899 136.842 15.5899C137.952 15.5899 138.742 15.3397 139.212 14.8408C139.684 14.3139 139.919 13.3847 139.919 12.0536C139.919 11.8923 139.91 11.6848 139.892 11.4302C139.878 11.2461 139.86 11.0379 139.836 10.8056C138.755 11.6651 137.05 12.1228 134.722 12.1786C134.814 11.3902 134.875 10.7167 134.906 10.1588C134.922 9.87251 134.93 9.6167 134.93 9.39136C134.93 7.727 134.514 6.45176 133.682 5.56373C132.851 4.64902 131.52 4.09423 129.691 3.9V5.27299C129.719 5.88301 129.733 6.64537 129.733 7.5607C129.733 8.47603 129.636 9.97344 129.442 12.0536C127.778 12.0815 126.503 12.3722 125.616 12.927C124.729 13.4538 124.286 14.4524 124.286 15.9224C124.286 16.2271 124.313 16.6848 124.369 17.2955C126.004 16.5743 127.543 16.0888 128.984 15.8393C128.818 16.9762 128.444 19.1673 127.861 22.4123C127.279 25.6292 126.988 28.1665 126.988 30.0251C126.988 32.1325 127.39 33.7689 128.194 34.9337C128.998 36.0706 130.468 36.9167 132.601 37.4715C132.214 36.6114 132.019 35.1832 132.019 33.1861C132.019 31.1899 132.144 29.2341 132.393 27.3209ZM151.468 13.6341C150.082 15.3265 148.89 17.9747 147.892 21.5801C148.142 20.1379 148.266 18.6406 148.266 17.0872C148.266 15.5067 147.865 14.1337 147.061 12.9689C146.256 11.7762 144.843 10.8608 142.819 10.2229C143.291 12.0815 143.526 14.1197 143.526 16.3383C143.526 18.5294 143.235 21.483 142.653 25.1989C142.071 28.9155 141.78 31.0509 141.78 31.6056C141.78 32.8815 142.127 33.7969 142.819 34.3509C143.512 34.9058 144.649 35.1832 146.229 35.1832C146.339 35.1832 146.512 35.1781 146.747 35.1673C147.044 35.1533 147.44 35.1304 147.934 35.1C147.795 33.0199 147.726 31.8412 147.726 31.5637C147.726 29.29 147.906 27.1547 148.266 25.1577C148.655 23.1327 149.125 21.483 149.68 20.2071C150.235 18.9039 150.817 17.8915 151.426 17.1704C152.036 16.4213 152.605 16.0475 153.131 16.0475C153.852 16.0475 154.212 16.4912 154.212 17.3787C154.212 18.904 153.782 20.2071 152.923 21.2888C153.45 21.511 153.907 21.6213 154.295 21.6213C155.765 21.6213 156.915 21.0253 157.747 19.8327C158.605 18.6406 159.036 17.3367 159.036 15.9224C159.036 14.4803 158.73 13.3155 158.121 12.4281C157.511 11.5127 156.597 11.0551 155.377 11.0551C154.185 11.0551 152.882 11.9152 151.468 13.6341ZM166.307 24.4087C167.583 24.7139 168.885 24.8663 170.217 24.8663C172.849 24.8663 175.067 24.2284 176.869 22.9525C178.697 21.6772 179.612 19.7356 179.612 17.1285C179.612 15.3265 179.044 13.8702 177.909 12.7607C176.772 11.6518 174.984 11.097 172.545 11.097C170.133 11.097 167.93 11.8454 165.933 13.3435C163.937 14.8129 162.481 16.6296 161.568 18.7929C160.653 20.9282 160.195 23.1886 160.195 25.5735C160.195 28.7631 161.068 31.259 162.814 33.0617C164.56 34.8366 166.598 35.724 168.926 35.724C172.78 35.724 175.926 33.852 178.365 30.1083C178.365 29.3039 177.866 28.7904 176.869 28.5689C176.065 29.8447 175.123 30.8426 174.041 31.5637C172.96 32.2848 171.824 32.6453 170.631 32.6453C169.44 32.6453 168.414 32.0633 167.555 30.8985C166.695 29.7337 166.265 28.0002 166.265 25.6985C166.265 25.1157 166.279 24.6861 166.307 24.4087ZM168.387 16.2969C169.356 14.5495 170.548 13.676 171.963 13.676C172.683 13.676 173.223 13.9395 173.585 14.4663C173.972 14.9659 174.167 15.5758 174.167 16.2969C174.167 18.0439 173.585 19.5419 172.42 20.7899C171.283 22.0377 169.508 22.6617 167.097 22.6617H166.474C166.778 20.1659 167.416 18.0439 168.387 16.2969ZM189.574 24.4087C190.849 24.7139 192.152 24.8663 193.483 24.8663C196.115 24.8663 198.333 24.2284 200.136 22.9525C201.965 21.6772 202.88 19.7356 202.88 17.1285C202.88 15.3265 202.311 13.8702 201.175 12.7607C200.038 11.6518 198.25 11.097 195.811 11.097C193.4 11.097 191.196 11.8454 189.2 13.3435C187.204 14.8129 185.749 16.6296 184.834 18.7929C183.92 20.9282 183.462 23.1886 183.462 25.5735C183.462 28.7631 184.335 31.259 186.082 33.0617C187.828 34.8366 189.866 35.724 192.194 35.724C196.047 35.724 199.192 33.852 201.633 30.1083C201.633 29.3039 201.134 28.7904 200.136 28.5689C199.331 29.8447 198.389 30.8426 197.308 31.5637C196.227 32.2848 195.09 32.6453 193.899 32.6453C192.706 32.6453 191.681 32.0633 190.822 30.8985C189.962 29.7337 189.533 28.0002 189.533 25.6985C189.533 25.1157 189.546 24.6861 189.574 24.4087ZM191.653 16.2969C192.623 14.5495 193.816 13.676 195.229 13.676C195.949 13.676 196.49 13.9395 196.851 14.4663C197.238 14.9659 197.433 15.5758 197.433 16.2969C197.433 18.0439 196.851 19.5419 195.687 20.7899C194.55 22.0377 192.776 22.6617 190.364 22.6617H189.741C190.045 20.1659 190.683 18.0439 191.653 16.2969Z" fill="white"/>
</svg>
